SplineFontDB: 3.2
FontName: TakenbyVulturesDemo
FullName: Taken by Vultures Demo
FamilyName: Taken by Vultures Demo
Weight: Book
Copyright: Taken by Vultures Typeface (Demo) (c) The Branded Quotes 2016. All Rights Reserved.
Version: 1.00 August 8, 2016, initial release
ItalicAngle: 0
UnderlinePosition: -292
UnderlineWidth: 150
Ascent: 1638
Descent: 410
InvalidEm: 0
sfntRevision: 0x00010000
LayerCount: 2
Layer: 0 1 "Atr+AOEA-s" 1
Layer: 1 1 "Fore" 0
XUID: [1021 235 -1355196258 19567]
StyleMap: 0x0040
FSType: 0
OS2Version: 3
OS2_WeightWidthSlopeOnly: 0
OS2_UseTypoMetrics: 0
CreationTime: 1465290933
ModificationTime: 1698271939
PfmFamily: 17
TTFWeight: 400
TTFWidth: 5
LineGap: 0
VLineGap: 0
Panose: 2 0 5 0 0 0 0 0 0 0
OS2TypoAscent: 1345
OS2TypoAOffset: 0
OS2TypoDescent: -340
OS2TypoDOffset: 0
OS2TypoLinegap: 205
OS2WinAscent: 2505
OS2WinAOffset: 0
OS2WinDescent: 1243
OS2WinDOffset: 0
HheadAscent: 2505
HheadAOffset: 0
HheadDescent: -1243
HheadDOffset: 0
OS2SubXSize: 1434
OS2SubYSize: 1331
OS2SubXOff: 0
OS2SubYOff: 283
OS2SupXSize: 1434
OS2SupYSize: 1331
OS2SupXOff: 0
OS2SupYOff: 977
OS2StrikeYSize: 102
OS2StrikeYPos: 530
OS2CapHeight: 1993
OS2XHeight: 481
OS2Vendor: 'HL  '
OS2CodePages: 20000001.00000000
OS2UnicodeRanges: 800000a7.5000004a.00000000.00000000
Lookup: 4 0 1 "'liga' Ligaduras est+AOEA-ndar en Latin b+APoA-squeda 0" { "'liga' Ligaduras est+AOEA-ndar en Latin b+APoA-squeda 0 subtabla"  } ['liga' ('latn' <'dflt' > ) ]
Lookup: 3 0 0 "'aalt' Activar todas las variantes en Latin b+APoA-squeda 1" { "'aalt' Activar todas las variantes en Latin b+APoA-squeda 1 subtabla"  } ['aalt' ('latn' <'dflt' > ) 'salt' ('latn' <'dflt' > ) ]
DEI: 91125
ShortTable: maxp 16
  1
  0
  240
  78
  4
  0
  0
  1
  0
  0
  0
  0
  0
  0
  0
  0
EndShort

StartChar: exclam
Encoding: 33 33 4
Width: 545
GlyphClass: 2
Flags: W
LayerCount: 2
Fore
SplineSet
489 1200 m 2,0,-1
 512 1200 l 2,1,2
 525 1198 525 1198 525 1186 c 1,3,4
 207 376 207 376 188 372 c 1,5,-1
 144 372 l 2,6,7
 129 372 129 372 129 387 c 1,8,9
 152 457 152 457 417 1092 c 1,10,11
 404 1092 404 1092 404 1107 c 2,12,-1
 404 1114 l 1,13,14
 453 1200 453 1200 489 1200 c 2,0,-1
108 256 m 1,15,16
 144 243 144 243 144 214 c 1,17,18
 111 184 111 184 57 184 c 1,19,-1
 36 214 l 1,20,-1
 36 228 l 2,21,22
 36 250 36 250 108 256 c 1,15,16
EndSplineSet
EndChar

StartChar: period
Encoding: 46 46 17
Width: 344
GlyphClass: 2
Flags: W
LayerCount: 2
Fore
SplineSet
191 261 m 1,0,1
 227 246 227 246 227 217 c 1,2,3
 195 189 195 189 141 189 c 1,4,-1
 119 217 l 1,5,-1
 119 232 l 2,6,7
 119 253 119 253 191 261 c 1,0,1
EndSplineSet
EndChar

StartChar: zero
Encoding: 48 48 19
Width: 656
GlyphClass: 2
Flags: W
LayerCount: 2
Fore
SplineSet
471 975 m 2,0,-1
 514 975 l 2,1,2
 612 975 612 975 651 859 c 1,3,4
 660 793 660 793 666 774 c 1,5,6
 666 424 666 424 355 103 c 1,7,8
 243 25 243 25 183 25 c 2,9,-1
 132 25 l 2,10,11
 6 25 6 25 -18 211 c 1,12,-1
 -18 241 l 2,13,14
 -18 556 -18 556 283 889 c 1,15,16
 408 975 408 975 471 975 c 2,0,-1
54 226 m 1,17,18
 69 61 69 61 154 61 c 0,19,20
 309 61 309 61 514 435 c 1,21,22
 594 642 594 642 594 759 c 0,23,24
 594 919 594 919 486 939 c 1,25,26
 343 898 343 898 211 702 c 1,27,28
 54 448 54 448 54 226 c 1,17,18
EndSplineSet
EndChar

StartChar: one
Encoding: 49 49 20
Width: 368
GlyphClass: 2
Flags: W
LayerCount: 2
Fore
SplineSet
470 1047 m 2,0,-1
 491 1047 l 2,1,2
 506 1045 506 1045 506 1033 c 0,3,4
 506 1018 506 1018 304 565 c 1,5,6
 77 19 77 19 59 3 c 1,7,-1
 16 3 l 2,8,9
 2 3 2 3 2 18 c 1,10,11
 118 304 118 304 311 759 c 1,12,-1
 262 759 l 2,13,14
 247 759 247 759 247 774 c 1,15,-1
 442 1039 l 1,16,17
 454 1047 454 1047 470 1047 c 2,0,-1
EndSplineSet
EndChar

StartChar: two
Encoding: 50 50 21
Width: 659
GlyphClass: 2
Flags: W
LayerCount: 2
Fore
SplineSet
554 1033 m 2,0,-1
 582 1033 l 2,1,2
 662 1030 662 1030 662 967 c 0,3,4
 662 777 662 777 50 97 c 1,5,6
 366 54 366 54 554 3 c 1,7,8
 582 10 582 10 605 10 c 1,9,10
 653 -18 653 -18 662 -18 c 1,11,-1
 662 -47 l 1,12,-1
 633 -47 l 2,13,14
 605 -47 605 -47 215 31 c 1,15,16
 39 61 39 61 14 61 c 1,17,18
 -39 -5 -39 -5 -79 -5 c 2,19,-1
 -94 -5 l 2,20,21
 -139 -5 -139 -5 -166 54 c 1,22,23
 -151 97 -151 97 -87 97 c 2,24,-1
 -37 97 l 1,25,26
 572 772 572 772 590 961 c 1,27,28
 581 997 581 997 569 997 c 0,29,30
 446 997 446 997 294 787 c 0,31,32
 251 729 251 729 251 715 c 1,33,-1
 201 715 l 2,34,35
 186 715 186 715 186 730 c 1,36,37
 246 886 246 886 431 1003 c 1,38,39
 503 1033 503 1033 554 1033 c 2,0,-1
-79 61 m 1,40,-1
 -87 46 l 1,41,-1
 -79 46 l 1,42,-1
 -73 61 l 1,43,-1
 -79 61 l 1,40,-1
EndSplineSet
EndChar

StartChar: three
Encoding: 51 51 22
Width: 502
GlyphClass: 2
Flags: W
LayerCount: 2
Fore
SplineSet
442 1039 m 2,0,-1
 449 1039 l 2,1,2
 557 1039 557 1039 557 954 c 0,3,4
 557 790 557 790 334 615 c 1,5,6
 493 538 493 538 493 378 c 0,7,8
 493 223 493 223 319 54 c 1,9,10
 250 -5 250 -5 161 -5 c 2,11,-1
 133 -5 l 1,12,13
 -70 18 -70 18 -70 154 c 0,14,15
 -70 244 -70 244 -11 298 c 1,16,-1
 2 298 l 1,17,-1
 38 291 l 1,18,19
 17 223 17 223 2 154 c 1,20,21
 22 31 22 31 161 31 c 0,22,23
 268 31 268 31 385 247 c 1,24,25
 421 331 421 331 421 391 c 0,26,27
 421 502 421 502 283 586 c 1,28,29
 226 550 226 550 161 550 c 1,30,31
 110 556 110 556 110 594 c 1,32,33
 127 643 127 643 175 643 c 2,34,-1
 269 643 l 1,35,36
 485 799 485 799 485 961 c 1,37,38
 479 1003 479 1003 442 1003 c 1,39,40
 254 954 254 954 254 882 c 1,41,-1
 218 874 l 1,42,-1
 182 874 l 2,43,44
 169 874 169 874 169 889 c 2,45,-1
 169 903 l 1,46,47
 286 1039 286 1039 442 1039 c 2,0,-1
EndSplineSet
EndChar

StartChar: four
Encoding: 52 52 23
Width: 521
GlyphClass: 2
Flags: W
LayerCount: 2
Fore
SplineSet
449 1038 m 1,0,-1
 477 1030 l 1,1,-1
 477 1009 l 1,2,3
 149 498 149 498 68 297 c 1,4,-1
 297 297 l 1,5,6
 410 585 410 585 449 621 c 1,7,-1
 485 621 l 2,8,9
 500 619 500 619 500 606 c 1,10,-1
 377 297 l 1,11,-1
 500 297 l 1,12,-1
 521 310 l 1,13,-1
 572 310 l 2,14,15
 582 310 582 310 593 289 c 1,16,-1
 593 274 l 2,17,18
 593 261 593 261 579 261 c 2,19,-1
 356 261 l 1,20,21
 284 93 284 93 284 81 c 1,22,-1
 297 81 l 1,23,-1
 297 52 l 1,24,25
 249 22 249 22 233 22 c 2,26,-1
 225 22 l 2,27,28
 189 22 189 22 189 37 c 0,29,30
 189 54 189 54 284 261 c 1,31,-1
 39 261 l 2,32,33
 0 261 0 261 -4 282 c 1,34,-1
 -4 289 l 2,35,36
 -4 378 -4 378 413 1030 c 1,37,-1
 449 1038 l 1,0,-1
EndSplineSet
EndChar

StartChar: five
Encoding: 53 53 24
Width: 657
GlyphClass: 2
Flags: W
LayerCount: 2
Fore
SplineSet
333 1006 m 1,0,-1
 693 1006 l 2,1,2
 704 1006 704 1006 716 984 c 1,3,-1
 716 976 l 2,4,5
 716 957 716 957 644 948 c 1,6,-1
 600 948 l 2,7,8
 585 948 585 948 585 970 c 1,9,-1
 405 970 l 1,10,11
 405 949 405 949 212 544 c 1,12,-1
 218 544 l 1,13,14
 342 646 342 646 449 646 c 2,15,-1
 485 646 l 2,16,17
 582 646 582 646 614 523 c 1,18,-1
 614 436 l 2,19,20
 614 234 614 234 420 70 c 1,21,22
 321 12 321 12 197 12 c 0,23,24
 -43 12 -43 12 -142 243 c 1,25,-1
 -142 250 l 1,26,-1
 -120 264 l 1,27,-1
 -106 264 l 2,28,29
 -67 264 -67 264 -48 199 c 1,30,31
 62 48 62 48 204 48 c 0,32,33
 437 48 437 48 536 372 c 1,34,35
 542 409 542 409 542 444 c 2,36,-1
 542 472 l 2,37,38
 542 589 542 589 464 610 c 1,39,40
 324 610 324 610 104 328 c 1,41,-1
 60 328 l 2,42,43
 45 328 45 328 45 343 c 0,44,45
 45 364 45 364 333 970 c 1,46,-1
 297 970 l 1,47,-1
 297 999 l 1,48,-1
 333 1006 l 1,0,-1
EndSplineSet
EndChar

StartChar: six
Encoding: 54 54 25
Width: 614
GlyphClass: 2
Flags: W
LayerCount: 2
Fore
SplineSet
698 991 m 0,0,1
 711 990 711 990 711 976 c 2,2,-1
 711 963 l 2,3,4
 711 940 711 940 647 927 c 1,5,-1
 639 927 l 1,6,-1
 597 934 l 1,7,8
 285 826 285 826 143 574 c 1,9,10
 57 390 57 390 57 286 c 2,11,-1
 57 250 l 1,12,-1
 63 199 l 1,13,14
 206 264 206 264 338 264 c 2,15,-1
 374 264 l 2,16,17
 501 264 501 264 525 171 c 1,18,-1
 525 120 l 1,19,20
 489 -17 489 -17 287 -17 c 0,21,22
 122 -17 122 -17 27 120 c 1,23,-1
 -9 112 l 1,24,-1
 -37 112 l 2,25,26
 -51 112 -51 112 -51 127 c 1,27,28
 -30 163 -30 163 -1 163 c 1,29,30
 -15 228 -15 228 -15 256 c 2,31,-1
 -15 292 l 2,32,33
 -15 487 -15 487 186 747 c 1,34,35
 456 991 456 991 698 991 c 0,0,1
86 148 m 1,36,37
 168 19 168 19 309 19 c 1,38,39
 453 49 453 49 453 135 c 2,40,-1
 453 156 l 2,41,42
 453 219 453 219 359 228 c 1,43,-1
 345 228 l 2,44,45
 212 228 212 228 86 148 c 1,36,37
EndSplineSet
EndChar

StartChar: seven
Encoding: 55 55 26
Width: 502
GlyphClass: 2
Flags: W
LayerCount: 2
Fore
SplineSet
116 835 m 1,0,1
 339 828 339 828 470 828 c 2,2,-1
 570 828 l 1,3,-1
 570 813 l 2,4,5
 570 784 570 784 368 517 c 1,6,-1
 102 64 l 1,7,8
 -1 -137 -1 -137 -28 -209 c 1,9,-1
 -100 -209 l 1,10,-1
 -100 -203 l 1,11,12
 71 192 71 192 326 561 c 1,13,14
 368 633 368 633 483 792 c 1,15,16
 350 799 350 799 290 799 c 2,17,-1
 95 799 l 1,18,-1
 95 828 l 1,19,20
 102 828 102 828 116 835 c 1,0,1
EndSplineSet
EndChar

StartChar: eight
Encoding: 56 56 27
Width: 536
GlyphClass: 2
Flags: W
LayerCount: 2
Fore
SplineSet
291 1029 m 1,0,-1
 320 1029 l 2,1,2
 408 1029 408 1029 515 900 c 1,3,-1
 623 1008 l 1,4,-1
 680 1008 l 1,5,-1
 680 985 l 1,6,-1
 551 841 l 1,7,-1
 557 805 l 2,8,9
 557 792 557 792 500 784 c 1,10,11
 272 525 272 525 263 489 c 1,12,13
 356 333 356 333 356 237 c 2,14,-1
 356 223 l 2,15,16
 356 54 356 54 176 0 c 0,17,18
 149 -8 149 -8 119 -8 c 0,19,20
 -25 9 -25 9 -25 115 c 2,21,-1
 -25 129 l 2,22,23
 -25 234 -25 234 176 496 c 1,24,-1
 176 504 l 1,25,26
 68 682 68 682 68 792 c 0,27,28
 68 928 68 928 248 1021 c 1,29,-1
 291 1029 l 1,0,-1
140 792 m 0,30,31
 140 703 140 703 219 561 c 1,32,-1
 227 561 l 1,33,-1
 464 841 l 1,34,-1
 464 849 l 1,35,36
 363 993 363 993 305 993 c 1,37,38
 140 909 140 909 140 792 c 0,30,31
204 432 m 1,39,40
 47 202 47 202 47 129 c 2,41,-1
 47 115 l 1,42,43
 66 28 66 28 125 28 c 0,44,45
 219 28 219 28 284 187 c 1,46,-1
 284 229 l 2,47,48
 284 304 284 304 219 432 c 1,49,-1
 204 432 l 1,39,40
EndSplineSet
EndChar

StartChar: nine
Encoding: 57 57 28
Width: 626
GlyphClass: 2
Flags: W
LayerCount: 2
Fore
SplineSet
378 973 m 2,0,-1
 437 973 l 2,1,2
 581 973 581 973 659 916 c 1,3,-1
 659 894 l 1,4,-1
 623 894 l 1,5,6
 479 937 479 937 422 937 c 2,7,-1
 414 937 l 2,8,9
 294 937 294 937 206 858 c 1,10,11
 83 729 83 729 83 642 c 0,12,13
 83 606 83 606 162 592 c 1,14,15
 341 592 341 592 602 880 c 1,16,-1
 653 880 l 1,17,-1
 653 858 l 1,18,19
 623 774 623 774 263 -6 c 1,20,-1
 270 -42 l 1,21,22
 233 -78 233 -78 206 -78 c 1,23,-1
 170 -71 l 1,24,-1
 170 -56 l 2,25,26
 170 -44 170 -44 501 685 c 1,27,-1
 501 693 l 1,28,29
 333 556 333 556 149 556 c 1,30,31
 11 567 11 567 11 642 c 2,32,-1
 11 657 l 2,33,34
 11 751 11 751 155 894 c 1,35,36
 263 973 263 973 378 973 c 2,0,-1
EndSplineSet
EndChar

StartChar: question
Encoding: 63 63 34
Width: 698
GlyphClass: 2
Flags: W
LayerCount: 2
Fore
SplineSet
481 1183 m 1,0,1
 654 1161 654 1161 654 1054 c 2,2,-1
 654 1011 l 2,3,4
 654 783 654 783 373 651 c 1,5,6
 217 541 217 541 165 355 c 1,7,-1
 136 355 l 1,8,-1
 100 363 l 1,9,10
 100 468 100 468 258 637 c 1,11,12
 561 805 561 805 561 925 c 1,13,14
 582 949 582 949 582 997 c 2,15,-1
 582 1047 l 2,16,17
 582 1119 582 1119 474 1147 c 1,18,19
 406 1147 406 1147 316 1069 c 1,20,21
 235 979 235 979 229 895 c 1,22,-1
 229 859 l 2,23,24
 229 801 229 801 294 709 c 1,25,-1
 294 687 l 1,26,-1
 237 687 l 1,27,28
 157 769 157 769 157 867 c 2,29,-1
 157 903 l 2,30,31
 157 967 157 967 250 1090 c 1,32,33
 352 1183 352 1183 481 1183 c 1,0,1
93 247 m 1,34,35
 129 234 129 234 129 205 c 1,36,37
 96 175 96 175 42 175 c 1,38,-1
 21 205 l 1,39,-1
 21 219 l 2,40,41
 21 241 21 241 93 247 c 1,34,35
EndSplineSet
EndChar

StartChar: A
Encoding: 65 65 36
Width: 1284
GlyphClass: 2
Flags: W
LayerCount: 2
Fore
SplineSet
1563 1687 m 0,0,1
 1618 1687 1618 1687 1627 1609 c 1,2,3
 1624 1423 1624 1423 1296 709 c 1,4,5
 1354 709 1354 709 1354 687 c 2,6,-1
 1354 679 l 2,7,8
 1354 666 1354 666 1339 666 c 2,9,-1
 1275 666 l 1,10,11
 1275 639 1275 639 532 -869 c 1,12,-1
 540 -882 l 1,13,14
 526 -915 526 -915 511 -918 c 2,15,-1
 460 -918 l 2,16,17
 447 -918 447 -918 447 -905 c 1,18,19
 1032 307 1032 307 1203 673 c 1,20,-1
 1195 673 l 1,21,22
 1026 687 1026 687 706 687 c 2,23,-1
 331 687 l 1,24,25
 19 361 19 361 -345 -90 c 1,26,27
 -684 -501 -684 -501 -1065 -1013 c 1,28,29
 -1092 -1034 -1092 -1034 -1116 -1034 c 0,30,31
 -1152 -1028 -1152 -1028 -1152 -1013 c 0,32,33
 -1130 -897 -1130 -897 -1109 -897 c 2,34,-1
 -1073 -897 l 1,35,-1
 -1058 -905 l 1,36,37
 -534 -194 -534 -194 64 493 c 1,38,39
 211 648 211 648 238 687 c 1,40,-1
 223 687 l 2,41,42
 -18 687 -18 687 -468 679 c 0,43,44
 -504 679 -504 679 -512 709 c 1,45,46
 -471 745 -471 745 -425 745 c 2,47,-1
 -404 745 l 2,48,49
 -389 745 -389 745 -389 723 c 1,50,-1
 274 723 l 1,51,52
 1165 1687 1165 1687 1563 1687 c 0,0,1
367 730 m 1,53,-1
 375 730 l 2,54,55
 652 730 652 730 1224 715 c 1,56,57
 1555 1429 1555 1429 1555 1623 c 1,58,-1
 1548 1651 l 1,59,60
 1194 1620 1194 1620 367 730 c 1,53,-1
EndSplineSet
EndChar

StartChar: B
Encoding: 66 66 37
Width: 1214
GlyphClass: 2
Flags: W
LayerCount: 2
Fore
SplineSet
1327 1728 m 2,0,-1
 1399 1728 l 2,1,2
 1610 1728 1610 1728 1702 1525 c 1,3,4
 1717 1461 1717 1461 1717 1432 c 2,5,-1
 1717 1411 l 2,6,7
 1717 1057 1717 1057 1111 799 c 1,8,9
 1042 763 1042 763 902 720 c 1,10,-1
 902 712 l 1,11,12
 1001 682 1001 682 1082 553 c 1,13,14
 1111 471 1111 471 1111 409 c 2,15,-1
 1111 373 l 2,16,17
 1111 136 1111 136 859 0 c 1,18,19
 737 -44 737 -44 614 -44 c 0,20,21
 340 -44 340 -44 241 223 c 1,22,23
 263 237 263 237 283 237 c 0,24,25
 337 237 337 237 362 136 c 1,26,27
 469 0 469 0 586 0 c 2,28,-1
 643 0 l 2,29,30
 895 0 895 0 1018 259 c 1,31,32
 1039 336 1039 336 1039 373 c 2,33,-1
 1039 409 l 2,34,35
 1039 592 1039 592 838 691 c 1,36,-1
 730 691 l 2,37,38
 715 691 715 691 715 705 c 0,39,40
 715 736 715 736 866 756 c 1,41,42
 1462 958 1462 958 1594 1237 c 1,43,44
 1645 1323 1645 1323 1645 1404 c 2,45,-1
 1645 1432 l 2,46,47
 1645 1615 1645 1615 1435 1684 c 1,48,-1
 1349 1692 l 1,49,50
 1198 1692 1198 1692 902 1417 c 1,51,52
 494 957 494 957 305 619 c 1,53,54
 146 381 146 381 -5 100 c 1,55,56
 -217 -263 -217 -263 -473 -792 c 1,57,-1
 -509 -800 l 1,58,-1
 -530 -800 l 2,59,60
 -541 -800 -541 -800 -559 -771 c 1,61,62
 -559 -620 -559 -620 -5 468 c 1,63,64
 398 1245 398 1245 434 1339 c 1,65,-1
 421 1345 l 1,66,67
 469 1447 469 1447 521 1447 c 1,68,69
 550 1435 550 1435 550 1425 c 0,70,71
 521 1341 521 1341 61 439 c 0,72,73
 -289 -242 -289 -242 -314 -317 c 1,74,75
 -299 -311 -299 -311 -155 -23 c 1,76,77
 823 1728 823 1728 1327 1728 c 2,0,-1
EndSplineSet
EndChar

StartChar: C
Encoding: 67 67 38
Width: 1408
GlyphClass: 2
Flags: W
LayerCount: 2
Fore
SplineSet
1631 1915 m 2,0,-1
 1732 1915 l 2,1,2
 1840 1915 1840 1915 1853 1813 c 1,3,-1
 1853 1777 l 2,4,5
 1853 1663 1853 1663 1631 1404 c 1,6,-1
 1588 1404 l 2,7,8
 1577 1404 1577 1404 1565 1425 c 1,9,10
 1625 1528 1625 1528 1703 1591 c 1,11,12
 1781 1740 1781 1740 1781 1785 c 2,13,-1
 1781 1828 l 1,14,15
 1754 1879 1754 1879 1688 1879 c 0,16,17
 1474 1879 1474 1879 1192 1741 c 0,18,19
 986 1639 986 1639 716 1396 c 1,20,21
 404 1080 404 1080 205 769 c 1,22,23
 67 538 67 538 4 345 c 1,24,25
 -25 210 -25 210 -32 136 c 1,26,27
 -32 -134 -32 -134 212 -216 c 1,28,-1
 263 -216 l 2,29,30
 605 -216 605 -216 1336 360 c 1,31,32
 1373 403 1373 403 1408 403 c 1,33,-1
 1444 396 l 1,34,-1
 1444 367 l 1,35,36
 1418 354 1418 354 1156 144 c 1,37,38
 605 -221 605 -221 436 -231 c 1,39,40
 418 -251 418 -251 248 -260 c 1,41,42
 -4 -260 -4 -260 -91 28 c 1,43,44
 -97 66 -97 66 -97 100 c 2,45,-1
 -97 157 l 2,46,47
 -97 606 -97 606 601 1368 c 1,48,49
 926 1675 926 1675 1127 1764 c 1,50,51
 1418 1915 1418 1915 1631 1915 c 2,0,-1
EndSplineSet
EndChar

StartChar: D
Encoding: 68 68 39
Width: 1516
GlyphClass: 2
Flags: W
LayerCount: 2
Fore
SplineSet
1292 1687 m 2,0,-1
 1372 1687 l 2,1,2
 1585 1687 1585 1687 1652 1422 c 0,3,4
 1667 1350 1667 1350 1667 1278 c 0,5,6
 1667 732 1667 732 1135 154 c 1,7,8
 770 -179 770 -179 443 -257 c 1,9,10
 242 -321 242 -321 -68 -321 c 0,11,12
 -478 -321 -478 -321 -917 -198 c 1,13,14
 -917 -191 -917 -191 -925 -177 c 1,15,16
 -899 -155 -899 -155 -838 -155 c 2,17,-1
 -809 -155 l 2,18,19
 -745 -155 -745 -155 -745 -198 c 1,20,21
 -334 -285 -334 -285 -61 -285 c 0,22,23
 599 -285 599 -285 1070 183 c 1,24,25
 1595 741 1595 741 1595 1278 c 0,26,27
 1595 1534 1595 1534 1444 1623 c 0,28,29
 1391 1651 1391 1651 1322 1651 c 0,30,31
 1067 1651 1067 1651 752 1399 c 1,32,33
 454 1116 454 1116 328 895 c 1,34,35
 224 736 224 736 40 306 c 1,36,-1
 -184 -170 l 1,37,-1
 -226 -170 l 2,38,39
 -238 -170 -238 -170 -248 -149 c 1,40,41
 -52 399 -52 399 191 810 c 1,42,43
 242 909 242 909 487 1458 c 1,44,45
 476 1458 476 1458 458 1471 c 1,46,47
 478 1516 478 1516 536 1566 c 1,48,-1
 580 1566 l 2,49,50
 595 1566 595 1566 595 1543 c 1,51,52
 487 1279 487 1279 415 1134 c 1,53,-1
 422 1134 l 1,54,55
 863 1687 863 1687 1292 1687 c 2,0,-1
EndSplineSet
EndChar

StartChar: E
Encoding: 69 69 40
Width: 716
GlyphClass: 2
Flags: W
LayerCount: 2
Fore
SplineSet
2589 1569 m 1,0,1
 2964 1561 2964 1561 3085 1561 c 1,2,-1
 3093 1548 l 1,3,-1
 3093 1533 l 2,4,5
 3093 1512 3093 1512 2991 1504 c 1,6,-1
 2985 1504 l 1,7,-1
 2955 1525 l 1,8,-1
 2358 1525 l 2,9,10
 1149 1525 1149 1525 154 1512 c 1,11,12
 141 1519 141 1519 133 1519 c 1,13,-1
 133 1533 l 1,14,-1
 141 1548 l 1,15,16
 180 1548 180 1548 277 1555 c 1,17,18
 2316 1569 2316 1569 2589 1569 c 1,0,1
457 1447 m 1,19,-1
 493 1447 l 2,20,21
 507 1444 507 1444 507 1432 c 0,22,23
 507 1414 507 1414 162 655 c 1,24,-1
 162 648 l 1,25,-1
 169 648 l 1,26,27
 1125 669 1125 669 1249 669 c 1,28,-1
 1257 655 l 1,29,-1
 1257 648 l 2,30,31
 1257 633 1257 633 1242 633 c 0,32,33
 255 612 255 612 141 604 c 1,34,35
 -146 -47 -146 -47 -270 -425 c 1,36,-1
 -270 -440 l 2,37,38
 -270 -464 -270 -464 -177 -468 c 1,39,-1
 -147 -468 l 2,40,41
 -141 -468 -141 -468 -141 -476 c 1,42,-1
 -126 -468 l 1,43,-1
 -105 -468 l 2,44,45
 27 -468 27 -468 414 -404 c 1,46,-1
 393 -375 l 1,47,-1
 414 -360 l 1,48,-1
 421 -360 l 2,49,50
 465 -360 465 -360 529 -383 c 1,51,-1
 529 -419 l 1,52,53
 109 -504 109 -504 -111 -504 c 2,54,-1
 -206 -504 l 2,55,56
 -342 -504 -342 -504 -342 -432 c 0,57,58
 -342 -335 -342 -335 69 604 c 1,59,-1
 -141 604 l 1,60,-1
 -177 612 l 1,61,-1
 -177 640 l 1,62,63
 -83 669 -83 669 3 669 c 2,64,-1
 25 669 l 1,65,-1
 25 648 l 1,66,-1
 90 648 l 1,67,68
 334 1216 334 1216 442 1440 c 1,69,-1
 457 1447 l 1,19,-1
EndSplineSet
EndChar

StartChar: F
Encoding: 70 70 41
Width: 871
GlyphClass: 2
Flags: W
LayerCount: 2
Fore
SplineSet
1550 1800 m 2,0,-1
 2320 1800 l 2,1,2
 2435 1800 2435 1800 2435 1777 c 2,3,-1
 2435 1764 l 1,4,5
 2420 1764 2420 1764 2420 1756 c 1,6,7
 2105 1764 2105 1764 1952 1764 c 2,8,-1
 1751 1764 l 2,9,10
 1375 1764 1375 1764 340 1749 c 0,11,12
 286 1749 286 1749 283 1713 c 1,13,-1
 275 1713 l 2,14,15
 155 1713 155 1713 131 1756 c 1,16,17
 139 1785 139 1785 211 1785 c 0,18,19
 1210 1800 1210 1800 1550 1800 c 2,0,-1
650 1656 m 2,20,-1
 686 1656 l 2,21,22
 700 1656 700 1656 700 1633 c 1,23,24
 368 949 368 949 146 381 c 1,25,-1
 152 381 l 1,26,27
 707 409 707 409 815 409 c 1,28,-1
 823 396 l 1,29,-1
 823 381 l 1,30,31
 815 355 815 355 628 345 c 1,32,33
 620 360 620 360 620 367 c 1,34,35
 554 360 554 360 124 337 c 1,36,37
 67 171 67 171 -329 -743 c 1,38,-1
 -373 -743 l 2,39,40
 -388 -743 -388 -743 -388 -728 c 2,41,-1
 -388 -720 l 1,42,43
 -376 -630 -376 -630 -322 -555 c 1,44,45
 -106 -53 -106 -53 52 337 c 1,46,-1
 16 331 l 1,47,48
 -34 331 -34 331 -193 324 c 1,49,50
 -193 337 -193 337 -208 337 c 1,51,52
 -208 373 -208 373 31 373 c 2,53,-1
 67 373 l 1,54,55
 362 1107 362 1107 614 1597 c 1,56,57
 632 1656 632 1656 650 1656 c 2,20,-1
EndSplineSet
EndChar

StartChar: G
Encoding: 71 71 42
Width: 1439
GlyphClass: 2
Flags: W
LayerCount: 2
Fore
SplineSet
1245 1863 m 2,0,-1
 1289 1863 l 2,1,2
 1656 1863 1656 1863 1656 1459 c 0,3,4
 1656 1366 1656 1366 1635 1264 c 1,5,-1
 1577 1264 l 2,6,7
 1551 1264 1551 1264 1541 1402 c 1,8,9
 1557 1416 1557 1416 1584 1416 c 1,10,-1
 1584 1474 l 2,11,12
 1584 1762 1584 1762 1347 1819 c 1,13,-1
 1275 1827 l 1,14,15
 615 1827 615 1827 93 502 c 1,16,17
 -15 196 -15 196 -15 -9 c 0,18,19
 -15 -261 -15 -261 165 -333 c 1,20,21
 228 -348 228 -348 267 -348 c 0,22,23
 591 -348 591 -348 1037 76 c 1,24,25
 1107 117 1107 117 1253 480 c 1,26,27
 1299 495 1299 495 1317 495 c 2,28,-1
 1332 495 l 1,29,30
 1376 490 1376 490 1376 472 c 2,31,-1
 1376 436 l 2,32,33
 1376 382 1376 382 1167 120 c 1,34,35
 837 -690 837 -690 663 -945 c 1,36,-1
 633 -945 l 2,37,38
 603 -945 603 -945 591 -917 c 1,39,40
 591 -816 591 -816 648 -816 c 2,41,-1
 669 -816 l 1,42,43
 801 -582 801 -582 1037 -9 c 1,44,45
 618 -384 618 -384 273 -384 c 2,46,-1
 237 -384 l 2,47,48
 -87 -384 -87 -384 -87 4 c 0,49,50
 -87 450 -87 450 381 1243 c 1,51,52
 782 1863 782 1863 1245 1863 c 2,0,-1
EndSplineSet
EndChar

StartChar: H
Encoding: 72 72 43
Width: 1151
GlyphClass: 2
Flags: W
LayerCount: 2
Fore
SplineSet
1696 1993 m 1,0,1
 1725 1983 1725 1983 1725 1972 c 1,2,3
 1654 1929 1654 1929 1653 1915 c 1,4,5
 1257 1071 1257 1071 1033 540 c 1,6,-1
 1185 540 l 2,7,8
 1195 540 1195 540 1206 517 c 1,9,-1
 1206 511 l 2,10,11
 1206 496 1206 496 1192 496 c 2,12,-1
 1012 496 l 1,13,14
 378 -1026 378 -1026 357 -1103 c 1,15,-1
 357 -1109 l 1,16,17
 372 -1133 372 -1133 372 -1152 c 1,18,-1
 357 -1160 l 1,19,-1
 336 -1160 l 2,20,21
 285 -1160 285 -1160 285 -1103 c 1,22,23
 306 -1022 306 -1022 940 496 c 1,24,25
 916 496 916 496 732 504 c 1,26,27
 318 504 318 504 97 489 c 1,28,29
 -140 -60 -140 -60 -299 -461 c 1,30,-1
 -291 -461 l 2,31,32
 -276 -464 -276 -464 -276 -476 c 1,33,34
 -294 -512 -294 -512 -335 -512 c 2,35,-1
 -342 -512 l 1,36,-1
 -378 -504 l 1,37,-1
 -378 -497 l 2,38,39
 -378 -443 -378 -443 25 496 c 1,40,-1
 -39 496 l 2,41,42
 -533 496 -533 496 -875 468 c 1,43,44
 -875 445 -875 445 -888 445 c 2,45,-1
 -939 445 l 2,46,47
 -992 445 -992 445 -996 468 c 1,48,-1
 -996 475 l 2,49,50
 -996 532 -996 532 -212 532 c 2,51,-1
 -147 532 l 2,52,53
 -86 532 -86 532 48 540 c 1,54,55
 336 1233 336 1233 630 1807 c 1,56,-1
 666 1813 l 1,57,58
 696 1803 696 1803 696 1792 c 1,59,60
 366 1128 366 1128 120 540 c 1,61,-1
 961 540 l 1,62,63
 1228 1191 1228 1191 1609 1965 c 1,64,65
 1659 1993 1659 1993 1696 1993 c 1,0,1
EndSplineSet
EndChar

StartChar: I
Encoding: 73 73 44
Width: 259
GlyphClass: 2
Flags: W
LayerCount: 2
Fore
SplineSet
348 1609 m 2,0,-1
 911 1609 l 2,1,2
 995 1609 995 1609 1176 1602 c 1,3,-1
 1184 1587 l 1,4,-1
 1184 1579 l 2,5,6
 1184 1566 1184 1566 1170 1566 c 2,7,-1
 183 1566 l 1,8,-1
 162 1551 l 1,9,-1
 140 1551 l 2,10,11
 60 1551 60 1551 60 1573 c 2,12,-1
 60 1579 l 2,13,14
 60 1609 60 1609 348 1609 c 2,0,-1
522 1458 m 2,15,16
 536 1458 536 1458 536 1435 c 1,17,18
 -48 153 -48 153 -249 -378 c 1,19,20
 -234 -386 -234 -386 -228 -386 c 1,21,-1
 -228 -401 l 2,22,23
 -228 -410 -228 -410 -264 -437 c 1,24,-1
 -285 -437 l 2,25,26
 -310 -437 -310 -437 -328 -414 c 1,27,28
 -328 -315 -328 -315 320 1126 c 0,29,30
 435 1378 435 1378 479 1458 c 1,31,-1
 522 1458 l 2,15,16
-601 -450 m 0,32,33
 -588 -450 -588 -450 -588 -458 c 1,34,35
 -516 -450 -516 -450 -480 -450 c 2,36,-1
 -18 -450 l 2,37,38
 12 -450 12 -450 60 -458 c 1,39,40
 68 -450 68 -450 119 -450 c 0,41,42
 378 -467 378 -467 378 -515 c 2,43,-1
 378 -551 l 1,44,-1
 342 -558 l 1,45,46
 318 -558 318 -558 291 -515 c 1,47,48
 225 -494 225 -494 -105 -494 c 1,49,-1
 -105 -486 l 1,50,-1
 -120 -494 l 1,51,-1
 -277 -494 l 2,52,53
 -294 -494 -294 -494 -306 -486 c 1,54,55
 -319 -494 -319 -494 -336 -494 c 2,56,-1
 -480 -494 l 2,57,58
 -486 -494 -486 -494 -486 -501 c 1,59,60
 -501 -494 -501 -494 -508 -494 c 0,61,62
 -549 -494 -549 -494 -688 -501 c 0,63,64
 -696 -501 -696 -501 -709 -494 c 1,65,66
 -756 -501 -756 -501 -897 -509 c 1,67,-1
 -925 -501 l 1,68,69
 -969 -509 -969 -509 -1105 -515 c 1,70,-1
 -1120 -509 l 1,71,72
 -1230 -522 -1230 -522 -1437 -530 c 1,73,74
 -1452 -522 -1452 -522 -1458 -522 c 1,75,-1
 -1458 -494 l 1,76,77
 -1312 -473 -1312 -473 -601 -450 c 0,32,33
EndSplineSet
EndChar

StartChar: J
Encoding: 74 74 45
Width: 300
GlyphClass: 2
Flags: W
LayerCount: 2
Fore
SplineSet
-88 1681 m 2,0,-1
 372 1681 l 2,1,2
 657 1681 657 1681 1136 1674 c 1,3,-1
 1151 1666 l 1,4,-1
 1194 1674 l 1,5,-1
 1308 1674 l 2,6,7
 1344 1674 1344 1674 1395 1659 c 1,8,-1
 1395 1630 l 1,9,10
 1388 1630 1388 1630 1374 1623 c 1,11,12
 1074 1632 1074 1632 984 1638 c 0,13,14
 966 1638 966 1638 927 1630 c 1,15,16
 575 1638 575 1638 372 1638 c 2,17,-1
 186 1638 l 2,18,19
 144 1638 144 1638 71 1630 c 0,20,21
 63 1630 63 1630 63 1638 c 1,22,23
 -9 1630 -9 1630 -45 1630 c 2,24,-1
 -261 1630 l 2,25,26
 -556 1630 -556 1630 -780 1609 c 1,27,-1
 -837 1609 l 2,28,29
 -852 1609 -852 1609 -852 1623 c 2,30,-1
 -852 1630 l 2,31,32
 -852 1666 -852 1666 -376 1666 c 1,33,34
 -376 1678 -376 1678 -88 1681 c 2,0,-1
603 1543 m 1,35,-1
 639 1543 l 2,36,37
 654 1542 654 1542 654 1530 c 1,38,39
 128 64 128 64 -297 -314 c 1,40,41
 -615 -618 -615 -618 -844 -681 c 1,42,43
 -934 -710 -934 -710 -981 -710 c 2,44,-1
 -1053 -710 l 2,45,46
 -1218 -710 -1218 -710 -1218 -573 c 1,47,48
 -1225 -573 -1225 -573 -1225 -558 c 0,49,50
 -1212 -353 -1212 -353 -916 -11 c 1,51,52
 -597 286 -597 286 -253 399 c 1,53,54
 -18 471 -18 471 92 471 c 2,55,-1
 114 471 l 1,56,-1
 114 435 l 1,57,-1
 107 435 l 1,58,59
 -232 403 -232 403 -636 147 c 1,60,61
 -946 -89 -946 -89 -1068 -329 c 1,62,63
 -1153 -461 -1153 -461 -1153 -573 c 1,64,65
 -1135 -674 -1135 -674 -1024 -674 c 2,66,-1
 -1017 -674 l 2,67,68
 -754 -674 -754 -674 -318 -257 c 1,69,70
 -54 58 -54 58 48 283 c 1,71,72
 282 727 282 727 588 1537 c 1,73,-1
 603 1543 l 1,35,-1
EndSplineSet
EndChar

StartChar: K
Encoding: 75 75 46
Width: 397
GlyphClass: 2
Flags: W
LayerCount: 2
Fore
SplineSet
496 1546 m 2,0,-1
 517 1546 l 2,1,2
 532 1543 532 1543 532 1531 c 2,3,-1
 532 1524 l 2,4,5
 532 1489 532 1489 259 826 c 1,6,-1
 108 466 l 1,7,8
 493 646 493 646 913 940 c 1,9,10
 1119 1096 1119 1096 1345 1308 c 1,11,-1
 1389 1308 l 2,12,13
 1404 1306 1404 1306 1404 1294 c 2,14,-1
 1404 1287 l 1,15,16
 1132 1020 1132 1020 835 819 c 1,17,18
 535 621 535 621 79 394 c 1,19,-1
 79 364 l 1,20,21
 300 187 300 187 705 -161 c 1,22,23
 856 -276 856 -276 1777 -932 c 1,24,-1
 1777 -938 l 1,25,-1
 1792 -932 l 1,26,27
 1848 -932 1848 -932 1885 -1032 c 1,28,29
 1885 -1046 1885 -1046 1872 -1046 c 2,30,-1
 1849 -1046 l 2,31,32
 1816 -1046 1816 -1046 1656 -909 c 1,33,34
 793 -299 793 -299 576 -132 c 1,35,36
 292 115 292 115 49 315 c 1,37,-1
 43 315 l 1,38,39
 0 192 0 192 -311 -549 c 0,40,41
 -422 -816 -422 -816 -447 -816 c 2,42,-1
 -468 -816 l 1,43,-1
 -504 -809 l 1,44,-1
 -504 -722 l 2,45,46
 -504 -711 -504 -711 -447 -693 c 1,47,48
 -260 -258 -260 -258 -15 351 c 1,49,-1
 -23 351 l 1,50,51
 -122 307 -122 307 -188 307 c 0,52,53
 -225 307 -225 307 -239 336 c 1,54,-1
 -239 351 l 1,55,56
 -227 459 -227 459 -137 459 c 2,57,-1
 -116 459 l 1,58,59
 -32 445 -32 445 0 415 c 1,60,61
 22 415 22 415 49 516 c 1,62,63
 93 589 93 589 453 1495 c 1,64,-1
 439 1503 l 1,65,66
 453 1546 453 1546 496 1546 c 2,0,-1
-137 423 m 1,67,68
 -167 376 -167 376 -167 351 c 1,69,-1
 -159 351 l 1,70,-1
 -59 387 l 1,71,-1
 -59 394 l 1,72,73
 -122 423 -122 423 -137 423 c 1,67,68
EndSplineSet
EndChar

StartChar: L
Encoding: 76 76 47
Width: 224
GlyphClass: 2
Flags: W
LayerCount: 2
Fore
SplineSet
868 1939 m 2,0,-1
 890 1939 l 1,1,-1
 926 1933 l 1,2,-1
 926 1911 l 2,3,4
 926 1867 926 1867 796 1702 c 1,5,6
 325 745 325 745 -341 -177 c 1,7,-1
 -536 -414 l 1,8,-1
 -529 -414 l 1,9,10
 19 -293 19 -293 775 -293 c 0,11,12
 1805 -293 1805 -293 2359 -473 c 1,13,14
 2360 -486 2360 -486 2372 -486 c 1,15,16
 2366 -501 2366 -501 2366 -509 c 1,17,-1
 2251 -509 l 1,18,-1
 2215 -501 l 1,19,-1
 2215 -479 l 1,20,-1
 2228 -479 l 1,21,-1
 2228 -473 l 1,22,23
 1673 -329 1673 -329 746 -329 c 0,24,25
 -40 -329 -40 -329 -586 -473 c 1,26,27
 -914 -846 -914 -846 -1048 -846 c 2,28,-1
 -1090 -846 l 2,29,30
 -1151 -846 -1151 -846 -1177 -753 c 1,31,32
 -1177 -639 -1177 -639 -832 -501 c 1,33,34
 -629 -438 -629 -438 -616 -422 c 0,35,36
 -598 -389 -598 -389 -400 -149 c 1,37,38
 2 412 2 412 256 846 c 1,39,40
 523 1314 523 1314 818 1882 c 1,41,42
 856 1939 856 1939 868 1939 c 2,0,-1
-1105 -761 m 1,43,44
 -1093 -810 -1093 -810 -1061 -810 c 1,45,46
 -917 -765 -917 -765 -694 -501 c 1,47,-1
 -701 -501 l 1,48,49
 -1105 -639 -1105 -639 -1105 -761 c 1,43,44
EndSplineSet
EndChar

StartChar: M
Encoding: 77 77 48
Width: 1525
GlyphClass: 2
Flags: W
LayerCount: 2
Fore
SplineSet
1824 1819 m 2,0,-1
 1831 1819 l 1,1,2
 1903 1810 1903 1810 1903 1747 c 2,3,-1
 1903 1726 l 2,4,5
 1903 1506 1903 1506 1479 616 c 0,6,7
 1003 -393 1003 -393 1003 -816 c 2,8,-1
 1003 -852 l 1,9,-1
 1011 -924 l 1,10,-1
 1047 -909 l 1,11,12
 1059 -917 1059 -917 1075 -917 c 1,13,-1
 1075 -938 l 1,14,15
 1059 -974 1059 -974 1003 -974 c 0,16,17
 931 -974 931 -974 931 -830 c 0,18,19
 931 -324 931 -324 1551 927 c 1,20,21
 1705 1282 1705 1282 1774 1474 c 1,22,23
 1818 1576 1818 1576 1839 1719 c 1,24,25
 1828 1783 1828 1783 1810 1783 c 1,26,27
 1635 1704 1635 1704 1291 1243 c 1,28,-1
 702 423 l 1,29,30
 627 328 627 328 586 328 c 2,31,-1
 579 328 l 1,32,33
 522 334 522 334 522 379 c 0,34,35
 522 448 522 448 643 1120 c 1,36,37
 651 1192 651 1192 651 1228 c 1,38,39
 643 1243 643 1243 643 1251 c 1,40,41
 552 1155 552 1155 391 832 c 0,42,43
 33 100 33 100 -105 -110 c 1,44,45
 -144 -117 -144 -117 -162 -117 c 1,46,47
 -192 -107 -192 -107 -192 -96 c 2,48,-1
 -192 -81 l 2,49,50
 -192 103 -192 103 198 1063 c 1,51,52
 163 1063 163 1063 147 1078 c 1,53,54
 177 1137 177 1137 247 1164 c 1,55,-1
 291 1164 l 1,56,-1
 298 1135 l 1,57,58
 58 562 58 562 -105 19 c 1,59,-1
 -98 19 l 1,60,61
 384 994 384 994 564 1264 c 1,62,63
 616 1308 616 1308 643 1308 c 2,64,-1
 658 1308 l 2,65,66
 723 1308 723 1308 723 1207 c 1,67,68
 708 1047 708 1047 600 459 c 0,69,70
 594 418 594 418 594 400 c 1,71,72
 739 565 739 565 1155 1164 c 1,73,74
 1350 1423 1350 1423 1443 1531 c 1,75,76
 1675 1819 1675 1819 1824 1819 c 2,0,-1
EndSplineSet
EndChar

StartChar: N
Encoding: 78 78 49
Width: 1418
GlyphClass: 2
Flags: W
LayerCount: 2
Fore
SplineSet
1546 1638 m 2,0,-1
 1554 1638 l 2,1,2
 1641 1638 1641 1638 1641 1543 c 2,3,-1
 1641 1530 l 2,4,5
 1641 1231 1641 1231 906 -293 c 1,6,7
 589 -998 589 -998 589 -1142 c 2,8,-1
 589 -1185 l 1,9,-1
 633 -1214 l 1,10,-1
 633 -1221 l 2,11,12
 633 -1235 633 -1235 618 -1235 c 2,13,-1
 582 -1235 l 1,14,15
 517 -1226 517 -1226 517 -1170 c 2,16,-1
 517 -1157 l 2,17,18
 517 -933 517 -933 1165 427 c 1,19,20
 1569 1296 1569 1296 1569 1530 c 2,21,-1
 1569 1558 l 2,22,23
 1569 1602 1569 1602 1539 1602 c 0,24,25
 1218 1579 1218 1579 301 391 c 1,26,27
 87 106 87 106 -51 -69 c 0,28,29
 -93 -126 -93 -126 -131 -126 c 0,30,31
 -186 -126 -186 -126 -195 -98 c 1,32,-1
 -195 -77 l 2,33,34
 -195 85 -195 85 273 961 c 0,35,36
 294 997 294 997 294 1011 c 1,37,-1
 273 1026 l 1,38,39
 327 1111 327 1111 373 1111 c 1,40,-1
 409 1105 l 1,41,-1
 409 1098 l 1,42,43
 387 1027 387 1027 57 399 c 1,44,-1
 -81 82 l 2,45,46
 -95 57 -95 57 -123 -47 c 1,47,-1
 -117 -47 l 1,48,49
 427 678 427 678 877 1183 c 1,50,51
 1311 1638 1311 1638 1546 1638 c 2,0,-1
EndSplineSet
EndChar

StartChar: O
Encoding: 79 79 50
Width: 1546
GlyphClass: 2
Flags: W
LayerCount: 2
Fore
SplineSet
1175 2023 m 2,0,-1
 1262 2023 l 2,1,2
 1694 2023 1694 2023 1694 1497 c 0,3,4
 1694 847 1694 847 1146 -95 c 1,5,6
 612 -923 612 -923 146 -923 c 2,7,-1
 138 -923 l 2,8,9
 -258 -923 -258 -923 -258 -447 c 0,10,11
 -258 58 -258 58 189 697 c 1,12,13
 608 1159 608 1159 750 1195 c 1,14,-1
 771 1195 l 2,15,16
 786 1192 786 1192 786 1180 c 2,17,-1
 786 1173 l 1,18,19
 555 1000 555 1000 426 871 c 1,20,21
 96 523 96 523 -27 193 c 1,22,23
 -186 -179 -186 -179 -186 -468 c 0,24,25
 -186 -792 -186 -792 45 -872 c 0,26,27
 84 -887 84 -887 146 -887 c 0,28,29
 588 -887 588 -887 1167 72 c 1,30,31
 1622 928 1622 928 1622 1489 c 2,32,-1
 1622 1540 l 2,33,34
 1622 1893 1622 1893 1362 1980 c 1,35,-1
 1226 1993 l 1,36,37
 792 1993 792 1993 311 1476 c 0,38,39
 189 1339 189 1339 95 1188 c 1,40,41
 131 1186 131 1186 131 1165 c 1,42,43
 83 1116 83 1116 30 1116 c 2,44,-1
 9 1116 l 2,45,46
 -3 1116 -3 1116 -13 1137 c 1,47,48
 72 1326 72 1326 447 1692 c 1,49,50
 843 2023 843 2023 1175 2023 c 2,0,-1
EndSplineSet
EndChar

StartChar: P
Encoding: 80 80 51
Width: 563
GlyphClass: 2
Flags: W
LayerCount: 2
Fore
SplineSet
1455 1875 m 2,0,-1
 1499 1875 l 2,1,2
 1710 1875 1710 1875 1808 1594 c 1,3,4
 1830 1474 1830 1474 1830 1429 c 0,5,6
 1830 1080 1830 1080 1491 846 c 1,7,8
 1263 709 1263 709 1059 709 c 2,9,-1
 944 709 l 2,10,11
 729 709 729 709 527 810 c 1,12,-1
 527 817 l 2,13,14
 527 828 527 828 548 838 c 1,15,-1
 563 838 l 1,16,17
 825 738 825 738 987 738 c 0,18,19
 1368 738 1368 738 1635 1062 c 1,20,21
 1758 1236 1758 1236 1758 1435 c 0,22,23
 1758 1686 1758 1686 1578 1810 c 0,24,25
 1530 1839 1530 1839 1470 1839 c 0,26,27
 1278 1839 1278 1839 980 1551 c 1,28,29
 648 1195 648 1195 390 751 c 1,30,31
 102 268 102 268 -252 -450 c 0,32,33
 -330 -603 -330 -603 -366 -630 c 1,34,-1
 -417 -630 l 2,35,36
 -432 -630 -432 -630 -432 -617 c 0,37,38
 -432 -537 -432 -537 0 399 c 1,39,40
 585 1603 585 1603 627 1702 c 1,41,-1
 620 1702 l 1,42,-1
 599 1717 l 1,43,44
 660 1810 660 1810 707 1810 c 2,45,-1
 735 1810 l 2,46,47
 750 1810 750 1810 750 1789 c 1,48,49
 318 910 318 910 -78 61 c 1,50,-1
 -78 54 l 1,51,-1
 -72 54 l 1,52,53
 864 1875 864 1875 1455 1875 c 2,0,-1
EndSplineSet
EndChar

StartChar: Q
Encoding: 81 81 52
Width: 1457
GlyphClass: 2
Flags: W
LayerCount: 2
Fore
SplineSet
1044 1641 m 2,0,-1
 1087 1641 l 2,1,2
 1401 1641 1401 1641 1512 1339 c 0,3,4
 1555 1233 1555 1233 1555 1101 c 2,5,-1
 1555 1008 l 2,6,7
 1555 516 1555 516 1137 -29 c 1,8,9
 840 -332 840 -332 540 -497 c 0,10,11
 525 -504 525 -504 519 -504 c 1,12,-1
 519 -512 l 1,13,14
 819 -497 819 -497 1231 -497 c 2,15,-1
 1663 -497 l 2,16,17
 2670 -497 2670 -497 4276 -764 c 1,18,-1
 4284 -779 l 1,19,20
 4284 -792 4284 -792 4269 -792 c 2,21,-1
 4111 -792 l 1,22,23
 4111 -761 4111 -761 3736 -720 c 1,24,25
 2446 -527 2446 -527 1491 -527 c 1,26,27
 898 -533 898 -533 453 -548 c 1,28,29
 -12 -785 -12 -785 -216 -785 c 2,30,-1
 -309 -785 l 1,31,32
 -468 -770 -468 -770 -468 -684 c 0,33,34
 -468 -629 -468 -629 -231 -576 c 1,35,36
 0 -540 0 -540 417 -512 c 1,37,38
 685 -369 685 -369 1036 -51 c 1,39,40
 1050 -27 1050 -27 1137 79 c 1,41,42
 1491 583 1491 583 1491 1057 c 0,43,44
 1491 1477 1491 1477 1188 1591 c 1,45,46
 1131 1605 1131 1605 1065 1605 c 2,47,-1
 1044 1605 l 2,48,49
 349 1605 349 1605 57 612 c 1,50,-1
 43 481 l 1,51,52
 43 202 43 202 259 -95 c 1,53,54
 324 -95 324 -95 324 -123 c 1,55,56
 331 -171 331 -171 331 -203 c 2,57,-1
 331 -209 l 1,58,-1
 267 -209 l 1,59,60
 -21 135 -21 135 -21 445 c 2,61,-1
 -21 504 l 2,62,63
 -21 813 -21 813 316 1303 c 1,64,65
 600 1641 600 1641 1044 1641 c 2,0,-1
-396 -692 m 2,66,-1
 -396 -699 l 2,67,68
 -396 -726 -396 -726 -309 -749 c 1,69,-1
 -260 -749 l 2,70,71
 -66 -749 -66 -749 324 -563 c 1,72,-1
 324 -555 l 1,73,74
 -396 -609 -396 -609 -396 -692 c 2,66,-1
EndSplineSet
EndChar

StartChar: R
Encoding: 82 82 53
Width: 809
GlyphClass: 2
Flags: W
LayerCount: 2
Fore
SplineSet
1290 1530 m 2,0,-1
 1326 1530 l 2,1,2
 1493 1530 1493 1530 1556 1399 c 1,3,4
 1571 1350 1571 1350 1571 1314 c 0,5,6
 1571 1096 1571 1096 1239 831 c 1,7,8
 1124 748 1124 748 908 687 c 1,9,10
 633 630 633 630 462 630 c 1,11,-1
 434 622 l 1,12,13
 573 331 573 331 995 -278 c 0,14,15
 1331 -761 1331 -761 1671 -1149 c 1,16,17
 1722 -1185 1722 -1185 1736 -1185 c 1,18,19
 1736 -1170 1736 -1170 1779 -1163 c 1,20,21
 1808 -1175 1808 -1175 1808 -1185 c 0,22,23
 1797 -1221 1797 -1221 1758 -1221 c 2,24,-1
 1715 -1221 l 1,25,26
 1599 -1206 1599 -1206 1232 -702 c 1,27,28
 741 -87 741 -87 383 571 c 1,29,-1
 347 643 l 1,30,-1
 368 658 l 1,31,32
 894 658 894 658 1232 889 c 1,33,34
 1499 1138 1499 1138 1499 1327 c 0,35,36
 1499 1474 1499 1474 1311 1494 c 1,37,-1
 1290 1494 l 2,38,39
 1070 1494 1070 1494 722 1183 c 1,40,41
 465 916 465 916 282 601 c 1,42,43
 57 190 57 190 -222 -494 c 1,44,45
 -241 -522 -241 -522 -273 -522 c 2,46,-1
 -294 -522 l 2,47,48
 -301 -522 -301 -522 -322 -494 c 1,49,50
 -322 -398 -322 -398 138 766 c 1,51,-1
 455 1494 l 1,52,-1
 491 1501 l 1,53,-1
 512 1501 l 2,54,55
 524 1501 524 1501 534 1471 c 1,56,57
 534 1407 534 1407 491 1407 c 1,58,59
 267 918 267 918 -21 169 c 1,60,-1
 -21 162 l 1,61,-1
 -13 162 l 1,62,63
 149 540 149 540 411 918 c 0,64,65
 521 1074 521 1074 714 1255 c 1,66,67
 1038 1530 1038 1530 1290 1530 c 2,0,-1
-28 154 m 1,68,69
 -28 142 -28 142 -42 118 c 1,70,-1
 -42 111 l 1,71,-1
 -34 111 l 1,72,73
 -34 124 -34 124 -21 147 c 1,74,-1
 -21 154 l 1,75,-1
 -28 154 l 1,68,69
EndSplineSet
EndChar

StartChar: S
Encoding: 83 83 54
Width: 952
GlyphClass: 2
Flags: W
LayerCount: 2
Fore
SplineSet
1149 1857 m 2,0,-1
 1170 1857 l 2,1,2
 1434 1857 1434 1857 1502 1684 c 1,3,4
 1517 1620 1517 1620 1517 1591 c 2,5,-1
 1517 1548 l 2,6,7
 1517 1270 1517 1270 1178 928 c 1,8,9
 1052 832 1052 832 969 784 c 1,10,-1
 926 784 l 2,11,12
 915 784 915 784 905 805 c 1,13,14
 927 871 927 871 1005 871 c 1,15,16
 1308 1075 1308 1075 1422 1425 c 0,17,18
 1445 1483 1445 1483 1445 1548 c 2,19,-1
 1445 1591 l 2,20,21
 1445 1755 1445 1755 1278 1807 c 0,22,23
 1224 1821 1224 1821 1178 1821 c 2,24,-1
 1134 1821 l 2,25,26
 477 1821 477 1821 306 949 c 1,27,28
 257 724 257 724 192 64 c 1,29,30
 483 256 483 256 941 409 c 1,31,-1
 969 409 l 2,32,33
 984 408 984 408 984 396 c 2,34,-1
 984 373 l 1,35,36
 522 229 522 229 177 -15 c 1,37,38
 77 -857 77 -857 -384 -857 c 2,39,-1
 -391 -857 l 1,40,41
 -486 -848 -486 -848 -486 -785 c 2,42,-1
 -486 -779 l 2,43,44
 -486 -554 -486 -554 -24 -101 c 1,45,46
 113 4 113 4 113 21 c 0,47,48
 206 958 206 958 306 1237 c 0,49,50
 528 1857 528 1857 1149 1857 c 2,0,-1
-414 -756 m 2,51,-1
 -414 -800 l 2,52,53
 -414 -821 -414 -821 -384 -821 c 0,54,55
 -171 -821 -171 -821 -10 -512 c 1,56,57
 98 -186 98 -186 98 -72 c 1,58,59
 -249 -383 -249 -383 -355 -599 c 0,60,61
 -414 -713 -414 -713 -414 -756 c 2,51,-1
EndSplineSet
EndChar

StartChar: T
Encoding: 84 84 55
Width: 196
GlyphClass: 2
Flags: W
LayerCount: 2
Fore
SplineSet
510 1638 m 2,0,-1
 762 1638 l 2,1,2
 1059 1638 1059 1638 2174 1609 c 1,3,4
 2210 1603 2210 1603 2210 1587 c 2,5,-1
 2210 1566 l 1,6,-1
 2081 1551 l 1,7,8
 2081 1561 2081 1561 2058 1573 c 1,9,10
 1103 1602 1103 1602 705 1602 c 2,11,-1
 561 1602 l 2,12,13
 32 1602 32 1602 -475 1573 c 1,14,-1
 -490 1594 l 1,15,16
 -460 1615 -460 1615 -433 1615 c 0,17,18
 137 1638 137 1638 510 1638 c 2,0,-1
546 1558 m 1,19,-1
 575 1558 l 2,20,21
 590 1557 590 1557 590 1543 c 0,22,23
 590 1525 590 1525 410 1162 c 1,24,25
 29 354 29 354 -411 -918 c 1,26,-1
 -403 -954 l 1,27,28
 -457 -1085 -457 -1085 -475 -1085 c 2,29,-1
 -505 -1085 l 2,30,31
 -519 -1085 -519 -1085 -519 -1070 c 1,32,33
 -411 -720 -411 -720 -145 18 c 1,34,35
 173 831 173 831 533 1551 c 1,36,-1
 546 1558 l 1,19,-1
EndSplineSet
EndChar

StartChar: U
Encoding: 85 85 56
Width: 1358
GlyphClass: 2
Flags: W
LayerCount: 2
Fore
SplineSet
1678 1533 m 1,0,-1
 1729 1533 l 2,1,2
 1744 1531 1744 1531 1744 1519 c 2,3,-1
 1744 1512 l 2,4,5
 1744 1485 1744 1485 1577 1245 c 1,6,7
 844 -366 844 -366 844 -915 c 0,8,9
 844 -1062 844 -1062 944 -1095 c 1,10,-1
 944 -1116 l 1,11,-1
 908 -1124 l 1,12,13
 794 -1124 794 -1124 778 -936 c 1,14,-1
 772 -893 l 1,15,16
 772 -432 772 -432 1361 936 c 1,17,18
 278 -555 278 -555 -158 -555 c 0,19,20
 -280 -555 -280 -555 -280 -404 c 1,21,22
 -223 115 -223 115 469 1273 c 1,23,-1
 469 1281 l 1,24,-1
 454 1303 l 1,25,26
 511 1360 511 1360 541 1360 c 2,27,-1
 569 1360 l 2,28,29
 584 1359 584 1359 584 1345 c 2,30,-1
 584 1332 l 1,31,32
 242 795 242 795 -20 201 c 1,33,34
 -208 -236 -208 -236 -208 -419 c 0,35,36
 -208 -519 -208 -519 -151 -519 c 0,37,38
 56 -506 56 -506 526 -8 c 1,39,40
 1214 793 1214 793 1541 1317 c 1,41,42
 1592 1450 1592 1450 1678 1533 c 1,0,-1
EndSplineSet
EndChar

StartChar: V
Encoding: 86 86 57
Width: 729
GlyphClass: 2
Flags: W
LayerCount: 2
Fore
SplineSet
1658 1975 m 2,0,-1
 1673 1975 l 2,1,2
 1683 1975 1683 1975 1694 1954 c 1,3,4
 1694 1911 1694 1911 1644 1911 c 1,5,6
 1410 1650 1410 1650 1089 1191 c 1,7,8
 743 664 743 664 17 -479 c 1,9,10
 -66 -594 -66 -594 -106 -594 c 2,11,-1
 -142 -594 l 2,12,13
 -180 -594 -180 -594 -184 -437 c 1,14,-1
 -184 -285 l 2,15,16
 -184 516 -184 516 182 1738 c 1,17,18
 200 1759 200 1759 225 1759 c 1,19,20
 240 1753 240 1753 248 1753 c 1,21,-1
 248 1746 l 1,22,23
 -127 486 -127 486 -127 -378 c 0,24,25
 -127 -431 -127 -431 -112 -545 c 1,26,27
 2 -425 2 -425 333 126 c 0,28,29
 810 912 810 912 1341 1638 c 1,30,31
 1595 1975 1595 1975 1658 1975 c 2,0,-1
EndSplineSet
EndChar

StartChar: W
Encoding: 87 87 58
Width: 1677
GlyphClass: 2
Flags: W
LayerCount: 2
Fore
SplineSet
2523 2505 m 1,0,1
 2551 2494 2551 2494 2551 2484 c 1,2,3
 2458 2347 2458 2347 2443 2347 c 0,4,5
 2397 2347 2397 2347 2364 2268 c 1,6,7
 2119 1918 2119 1918 1674 799 c 1,8,9
 1266 -270 1266 -270 1062 -648 c 1,10,11
 1008 -720 1008 -720 954 -720 c 0,12,13
 894 -720 894 -720 867 -663 c 1,14,15
 823 -539 823 -539 823 -245 c 0,16,17
 823 -107 823 -107 867 1116 c 1,18,-1
 867 1123 l 2,19,20
 867 1146 867 1146 859 1245 c 1,21,22
 739 1089 739 1089 283 57 c 1,23,24
 85 -357 85 -357 18 -383 c 1,25,-1
 -33 -383 l 2,26,27
 -90 -383 -90 -383 -90 -260 c 0,28,29
 -90 -26 -90 -26 139 1144 c 1,30,31
 162 1303 162 1303 219 1303 c 2,32,-1
 226 1303 l 1,33,34
 276 1287 276 1287 276 1216 c 2,35,-1
 276 1201 l 1,36,-1
 234 1201 l 2,37,38
 216 1201 216 1201 162 849 c 1,39,40
 -18 12 -18 12 -18 -288 c 0,41,42
 -18 -294 -18 -294 -12 -332 c 1,43,-1
 -5 -332 l 1,44,45
 201 7 201 7 630 979 c 1,46,47
 789 1309 789 1309 859 1309 c 2,48,-1
 874 1309 l 2,49,50
 939 1309 939 1309 939 1137 c 2,51,-1
 939 1101 l 1,52,53
 895 -47 895 -47 895 -239 c 2,54,-1
 895 -288 l 2,55,56
 895 -563 895 -563 946 -677 c 1,57,-1
 954 -677 l 1,58,59
 1056 -587 1056 -587 1486 504 c 1,60,61
 1974 1789 1974 1789 2322 2325 c 1,62,63
 2458 2505 2458 2505 2523 2505 c 1,0,1
EndSplineSet
EndChar

StartChar: X
Encoding: 88 88 59
Width: 421
GlyphClass: 2
Flags: W
LayerCount: 2
Fore
SplineSet
-370 1735 m 2,0,-1
 -334 1735 l 2,1,2
 -85 1735 -85 1735 5 1195 c 1,3,4
 33 1111 33 1111 141 625 c 1,5,6
 384 952 384 952 560 1123 c 1,7,8
 653 1201 653 1201 776 1201 c 1,9,10
 854 1195 854 1195 854 1173 c 2,11,-1
 854 1159 l 1,12,-1
 825 1152 l 1,13,14
 762 1159 762 1159 746 1159 c 0,15,16
 618 1159 618 1159 285 691 c 1,17,-1
 164 540 l 1,18,19
 384 -402 384 -402 566 -605 c 1,20,-1
 602 -627 l 1,21,-1
 617 -627 l 2,22,23
 660 -627 660 -627 725 -533 c 1,24,25
 737 -527 737 -527 753 -527 c 2,26,-1
 782 -533 l 1,27,28
 782 -612 782 -612 653 -663 c 1,29,-1
 596 -663 l 2,30,31
 371 -663 371 -663 113 460 c 1,32,33
 -214 18 -214 18 -600 -360 c 1,34,35
 -1488 -1196 -1488 -1196 -1983 -1196 c 2,36,-1
 -2055 -1196 l 2,37,38
 -2107 -1196 -2107 -1196 -2112 -1175 c 0,39,40
 -2112 -1163 -2112 -1163 -2083 -1152 c 1,41,42
 -2071 -1152 -2071 -1152 -1996 -1160 c 1,43,44
 -1768 -1160 -1768 -1160 -1335 -887 c 1,45,46
 -556 -357 -556 -357 84 553 c 1,47,48
 -103 1441 -103 1441 -190 1591 c 1,49,50
 -283 1699 -283 1699 -327 1699 c 1,51,52
 -390 1692 -390 1692 -406 1692 c 1,53,-1
 -420 1713 l 1,54,55
 -393 1735 -393 1735 -370 1735 c 2,0,-1
EndSplineSet
EndChar

StartChar: Y
Encoding: 89 89 60
Width: 1385
GlyphClass: 2
Flags: W
LayerCount: 2
Fore
SplineSet
1811 1854 m 1,0,1
 1854 1854 1854 1854 1854 1825 c 0,2,3
 1854 1744 1854 1744 1464 846 c 1,4,5
 1400 715 1400 715 1047 -77 c 1,6,7
 996 -162 996 -162 996 -206 c 1,8,9
 1203 -119 1203 -119 1530 -119 c 1,10,11
 1760 -125 1760 -125 1760 -149 c 2,12,-1
 1760 -155 l 1,13,-1
 1752 -170 l 1,14,15
 1598 -162 1598 -162 1523 -162 c 2,16,-1
 1494 -162 l 2,17,18
 1157 -162 1157 -162 947 -293 c 1,19,20
 636 -969 636 -969 572 -1091 c 1,21,22
 468 -1242 468 -1242 384 -1242 c 2,23,-1
 342 -1242 l 2,24,25
 270 -1242 270 -1242 270 -1134 c 0,26,27
 270 -917 270 -917 630 -501 c 0,28,29
 708 -414 708 -414 882 -257 c 1,30,31
 1499 1093 1499 1093 1739 1702 c 1,32,33
 1662 1620 1662 1620 1119 889 c 1,34,35
 822 520 822 520 579 255 c 0,36,37
 212 -141 212 -141 -12 -141 c 2,38,-1
 -25 -141 l 2,39,40
 -105 -141 -105 -141 -120 -33 c 1,41,-1
 -120 -11 l 2,42,43
 -120 286 -120 286 378 1263 c 1,44,45
 312 1263 312 1263 312 1285 c 1,46,47
 417 1407 417 1407 464 1407 c 2,48,-1
 500 1407 l 2,49,50
 515 1405 515 1405 515 1393 c 2,51,-1
 515 1363 l 1,52,53
 -40 297 -40 297 -40 -18 c 2,54,-1
 -40 -33 l 1,55,56
 -25 -98 -25 -98 -4 -98 c 0,57,58
 294 -98 294 -98 1350 1314 c 1,59,60
 1652 1729 1652 1729 1775 1846 c 1,61,-1
 1811 1854 l 1,0,1
348 -1134 m 2,62,-1
 348 -1157 l 2,63,64
 348 -1199 348 -1199 378 -1199 c 0,65,66
 468 -1199 468 -1199 731 -581 c 1,67,68
 803 -431 803 -431 803 -422 c 1,69,70
 468 -764 468 -764 420 -911 c 1,71,72
 348 -1043 348 -1043 348 -1134 c 2,62,-1
EndSplineSet
EndChar

StartChar: Z
Encoding: 90 90 61
Width: 356
GlyphClass: 2
Flags: W
LayerCount: 2
Fore
SplineSet
624 1528 m 2,0,1
 918 1528 918 1528 918 1470 c 2,2,-1
 918 1456 l 2,3,4
 918 1413 918 1413 552 958 c 1,5,6
 234 549 234 549 -378 -122 c 1,7,-1
 -702 -446 l 1,8,9
 -354 -387 -354 -387 61 -387 c 2,10,-1
 306 -387 l 2,11,12
 1375 -387 1375 -387 3093 -582 c 1,13,-1
 3093 -611 l 1,14,15
 3004 -639 3004 -639 2934 -639 c 1,16,-1
 2920 -618 l 1,17,18
 2943 -603 2943 -603 2956 -603 c 1,19,-1
 2956 -596 l 1,20,21
 1098 -416 1098 -416 198 -416 c 1,22,23
 -803 -441 -803 -441 -803 -539 c 1,24,25
 -968 -683 -968 -683 -1112 -683 c 2,26,-1
 -1134 -683 l 2,27,28
 -1167 -683 -1167 -683 -1191 -647 c 1,29,30
 -1191 -557 -1191 -557 -803 -459 c 1,31,32
 -195 144 -195 144 120 534 c 1,33,34
 619 1120 619 1120 846 1449 c 1,35,-1
 846 1456 l 2,36,37
 846 1488 846 1488 537 1498 c 1,38,39
 -23 1480 -23 1480 -119 1456 c 1,40,-1
 -119 1434 l 1,41,-1
 -132 1434 l 1,42,43
 -248 1440 -248 1440 -248 1470 c 0,44,45
 -248 1510 -248 1510 408 1528 c 1,46,-1
 624 1528 l 2,0,1
-1119 -647 m 1,47,-1
 -1104 -647 l 2,48,49
 -1013 -647 -1013 -647 -882 -524 c 1,50,-1
 -888 -524 l 1,51,52
 -1119 -600 -1119 -600 -1119 -647 c 1,47,-1
EndSplineSet
EndChar

StartChar: a
Encoding: 97 97 68
Width: 410
GlyphClass: 2
Flags: W
LayerCount: 2
Fore
SplineSet
250 556 m 2,0,-1
 272 556 l 2,1,2
 286 553 286 553 286 541 c 2,3,-1
 286 534 l 1,4,5
 200 336 200 336 200 274 c 1,6,-1
 206 274 l 1,7,8
 284 316 284 316 409 405 c 1,9,-1
 416 405 l 1,10,11
 428 397 428 397 445 397 c 1,12,-1
 445 376 l 1,13,14
 281 232 281 232 200 232 c 2,15,-1
 178 232 l 2,16,17
 134 232 134 232 134 274 c 2,18,-1
 134 282 l 2,19,20
 134 333 134 333 149 361 c 1,21,-1
 149 369 l 1,22,-1
 142 369 l 1,23,24
 79 282 79 282 13 282 c 2,25,-1
 -2 282 l 2,26,27
 -40 282 -40 282 -46 304 c 1,28,-1
 -46 325 l 2,29,30
 -46 409 -46 409 62 477 c 0,31,32
 101 498 101 498 134 498 c 1,33,34
 166 490 166 490 185 490 c 1,35,36
 239 556 239 556 250 556 c 2,0,-1
20 333 m 1,37,-1
 26 333 l 1,38,39
 134 424 134 424 134 441 c 1,40,-1
 121 448 l 1,41,-1
 106 448 l 1,42,43
 50 418 50 418 20 340 c 1,44,-1
 20 333 l 1,37,-1
EndSplineSet
EndChar

StartChar: b
Encoding: 98 98 69
Width: 382
GlyphClass: 2
Flags: W
LayerCount: 2
Fore
SplineSet
483 1432 m 1,0,1
 512 1422 512 1422 512 1411 c 0,2,3
 512 1389 512 1389 203 756 c 1,4,-1
 36 352 l 1,5,-1
 44 352 l 1,6,7
 132 475 132 475 216 475 c 2,8,-1
 267 475 l 2,9,10
 276 475 276 475 303 439 c 1,11,-1
 303 417 l 2,12,13
 303 370 303 370 210 273 c 1,14,15
 264 298 264 298 368 396 c 1,16,-1
 375 396 l 1,17,-1
 411 388 l 1,18,-1
 411 373 l 1,19,20
 246 187 246 187 72 187 c 2,21,-1
 36 187 l 1,22,-1
 0 193 l 1,23,24
 -72 45 -72 45 -114 7 c 1,25,-1
 -144 7 l 1,26,-1
 -165 21 l 1,27,28
 180 898 180 898 447 1389 c 1,29,-1
 440 1404 l 1,30,31
 455 1432 455 1432 483 1432 c 1,0,1
30 229 m 1,32,-1
 30 223 l 1,33,34
 180 288 180 288 239 409 c 1,35,-1
 239 424 l 2,36,37
 239 439 239 439 224 439 c 0,38,39
 152 421 152 421 30 229 c 1,32,-1
EndSplineSet
EndChar

StartChar: c
Encoding: 99 99 70
Width: 298
GlyphClass: 2
Flags: W
LayerCount: 2
Fore
SplineSet
143 493 m 1,0,1
 207 481 207 481 207 442 c 1,2,3
 198 391 198 391 179 391 c 2,4,-1
 143 391 l 2,5,6
 129 391 129 391 129 406 c 1,7,8
 143 430 143 430 143 450 c 1,9,10
 51 450 51 450 -22 241 c 1,11,12
 -15 226 -15 226 -15 219 c 1,13,-1
 6 219 l 2,14,15
 68 219 68 219 273 391 c 0,16,17
 285 399 285 399 302 399 c 2,18,-1
 309 399 l 2,19,20
 323 397 323 397 323 385 c 2,21,-1
 323 370 l 1,22,23
 120 175 120 175 -15 175 c 1,24,25
 -87 189 -87 189 -87 241 c 1,26,27
 -6 493 -6 493 143 493 c 1,0,1
EndSplineSet
EndChar

StartChar: d
Encoding: 100 100 71
Width: 399
GlyphClass: 2
Flags: W
LayerCount: 2
Fore
SplineSet
644 1345 m 1,0,-1
 672 1345 l 2,1,2
 687 1345 687 1345 687 1324 c 1,3,-1
 68 -123 l 1,4,5
 75 -137 75 -137 75 -144 c 1,6,-1
 53 -159 l 1,7,-1
 47 -159 l 2,8,9
 8 -159 8 -159 3 -137 c 1,10,11
 3 -99 3 -99 255 475 c 1,12,13
 191 406 191 406 191 360 c 1,14,15
 156 360 156 360 83 288 c 1,16,17
 30 252 30 252 3 252 c 2,18,-1
 -48 252 l 2,19,20
 -61 252 -61 252 -61 265 c 2,21,-1
 -61 273 l 1,22,23
 -57 367 -57 367 75 511 c 1,24,-1
 111 517 l 1,25,-1
 119 517 l 2,26,27
 146 517 146 517 183 481 c 1,28,-1
 191 481 l 1,29,30
 339 724 339 724 420 900 c 1,31,32
 543 1137 543 1137 629 1339 c 1,33,-1
 644 1345 l 1,0,-1
11 301 m 1,34,35
 87 343 87 343 132 417 c 1,36,-1
 132 424 l 1,37,38
 125 468 125 468 111 468 c 1,39,40
 30 379 30 379 11 301 c 1,34,35
EndSplineSet
EndChar

StartChar: e
Encoding: 101 101 72
Width: 241
GlyphClass: 2
Flags: W
LayerCount: 2
Fore
SplineSet
118 496 m 1,0,-1
 131 496 l 1,1,2
 190 490 190 490 190 445 c 0,3,4
 190 406 190 406 31 360 c 1,5,6
 -5 282 -5 282 -5 259 c 1,7,-1
 2 259 l 1,8,9
 89 265 89 265 239 396 c 1,10,-1
 262 396 l 2,11,12
 275 394 275 394 275 381 c 2,13,-1
 275 367 l 1,14,15
 131 223 131 223 23 223 c 2,16,-1
 -19 223 l 2,17,18
 -70 223 -70 223 -70 265 c 0,19,20
 -70 304 -70 304 -34 352 c 1,21,-1
 -41 367 l 1,22,-1
 -41 381 l 1,23,24
 -26 381 -26 381 67 481 c 1,25,-1
 118 496 l 1,0,-1
89 424 m 1,26,-1
 95 424 l 1,27,-1
 125 453 l 1,28,29
 92 439 92 439 89 424 c 1,26,-1
EndSplineSet
EndChar

StartChar: f
Encoding: 102 102 73
Width: 206
GlyphClass: 2
Flags: W
LayerCount: 2
Fore
SplineSet
329 1129 m 1,0,-1
 365 1123 l 1,1,-1
 365 1108 l 2,2,3
 365 1065 365 1065 242 864 c 1,4,-1
 -17 259 l 1,5,-1
 -10 259 l 1,6,7
 67 288 67 288 199 403 c 1,8,-1
 214 403 l 2,9,10
 229 400 229 400 229 388 c 2,11,-1
 229 373 l 1,12,13
 79 216 79 216 -38 216 c 1,14,-1
 -46 187 l 1,15,-1
 -31 64 l 1,16,17
 -31 -150 -31 -150 -203 -483 c 0,18,19
 -272 -612 -272 -612 -326 -612 c 1,20,21
 -370 -608 -370 -608 -370 -569 c 0,22,23
 -370 -423 -370 -423 -110 193 c 1,24,25
 -154 262 -154 262 -154 280 c 1,26,-1
 -118 288 l 1,27,-1
 -110 288 l 1,28,-1
 -82 265 l 1,29,-1
 -74 265 l 1,30,31
 187 889 187 889 314 1123 c 1,32,-1
 329 1129 l 1,0,-1
-95 79 m 1,33,34
 -244 -233 -244 -233 -311 -548 c 1,35,-1
 -311 -555 l 1,36,-1
 -305 -555 l 1,37,38
 -89 -177 -89 -177 -89 72 c 2,39,-1
 -89 79 l 1,40,-1
 -95 79 l 1,33,34
EndSplineSet
EndChar

StartChar: g
Encoding: 103 103 74
Width: 405
GlyphClass: 2
Flags: W
LayerCount: 2
Fore
SplineSet
267 565 m 1,0,1
 280 558 280 558 288 558 c 1,2,-1
 288 543 l 2,3,4
 288 513 288 513 208 306 c 1,5,6
 369 421 369 421 403 421 c 2,7,-1
 424 421 l 2,8,9
 439 418 439 418 439 406 c 2,10,-1
 439 399 l 1,11,12
 426 378 426 378 273 291 c 1,13,14
 151 207 151 207 151 147 c 1,15,16
 -114 -522 -114 -522 -216 -522 c 2,17,-1
 -224 -522 l 1,18,19
 -288 -518 -288 -518 -288 -465 c 1,20,21
 -251 -231 -251 -231 -36 82 c 0,22,23
 6 138 6 138 123 247 c 1,24,-1
 165 378 l 1,25,26
 72 291 72 291 15 291 c 2,27,-1
 7 291 l 2,28,29
 -44 291 -44 291 -44 342 c 2,30,-1
 -44 355 l 1,31,32
 12 507 12 507 136 507 c 0,33,34
 172 507 172 507 172 486 c 1,35,36
 240 565 240 565 267 565 c 1,0,1
21 349 m 1,37,-1
 21 334 l 1,38,39
 63 351 63 351 165 471 c 1,40,-1
 151 471 l 2,41,42
 70 471 70 471 21 349 c 1,37,-1
-224 -473 m 1,43,44
 -170 -473 -170 -473 57 90 c 0,45,46
 64 103 64 103 64 111 c 1,47,48
 -66 -45 -66 -45 -144 -221 c 0,49,50
 -224 -395 -224 -395 -224 -473 c 1,43,44
EndSplineSet
AlternateSubs2: "'aalt' Activar todas las variantes en Latin b+APoA-squeda 1 subtabla" g_2
EndChar

StartChar: h
Encoding: 104 104 75
Width: 354
GlyphClass: 2
Flags: W
LayerCount: 2
Fore
SplineSet
303 1174 m 1,0,1
 334 1161 334 1161 339 1146 c 1,2,-1
 339 1132 l 1,3,4
 331 1089 331 1089 36 354 c 0,5,6
 36 351 36 351 28 325 c 1,7,8
 115 469 115 469 195 469 c 2,9,-1
 216 469 l 2,10,11
 232 469 232 469 238 433 c 1,12,13
 207 358 207 358 187 282 c 1,14,15
 234 310 234 310 346 418 c 1,16,-1
 375 418 l 2,17,18
 388 417 388 417 388 405 c 2,19,-1
 388 390 l 1,20,21
 268 261 268 261 208 232 c 1,22,-1
 144 232 l 2,23,24
 133 232 133 232 123 253 c 1,25,-1
 123 282 l 2,26,27
 123 316 123 316 159 397 c 1,28,-1
 151 397 l 1,29,30
 51 225 51 225 0 225 c 2,31,-1
 -14 225 l 2,32,33
 -53 225 -53 225 -57 246 c 1,34,-1
 -57 253 l 1,35,36
 -14 409 -14 409 274 1125 c 1,37,-1
 267 1161 l 1,38,39
 289 1174 289 1174 303 1174 c 1,0,1
EndSplineSet
EndChar

StartChar: i
Encoding: 105 105 76
Width: 242
GlyphClass: 2
Flags: W
LayerCount: 2
Fore
SplineSet
215 855 m 1,0,-1
 259 855 l 1,1,-1
 259 811 l 1,2,3
 190 790 190 790 172 790 c 2,4,-1
 151 790 l 2,5,6
 136 790 136 790 136 804 c 0,7,8
 136 814 136 814 215 855 c 1,0,-1
43 523 m 1,9,-1
 71 523 l 2,10,11
 82 523 82 523 92 502 c 1,12,-1
 92 495 l 2,13,14
 92 471 92 471 20 300 c 1,15,-1
 20 264 l 1,16,17
 115 315 115 315 230 400 c 1,18,-1
 236 400 l 1,19,20
 250 394 250 394 266 394 c 1,21,-1
 266 372 l 1,22,23
 137 252 137 252 14 214 c 1,24,-1
 -8 214 l 2,25,26
 -52 214 -52 214 -52 256 c 0,27,28
 -52 307 -52 307 28 487 c 1,29,30
 20 502 20 502 20 508 c 1,31,-1
 43 523 l 1,9,-1
EndSplineSet
EndChar

StartChar: j
Encoding: 106 106 77
Width: 179
GlyphClass: 2
Flags: W
LayerCount: 2
Fore
SplineSet
181 855 m 1,0,-1
 225 855 l 1,1,-1
 225 811 l 1,2,3
 156 790 156 790 138 790 c 2,4,-1
 117 790 l 2,5,6
 102 790 102 790 102 804 c 0,7,8
 102 814 102 814 181 855 c 1,0,-1
37 544 m 2,9,-1
 66 544 l 2,10,11
 81 544 81 544 81 523 c 1,12,13
 15 327 15 327 1 300 c 1,14,15
 82 358 82 358 181 408 c 1,16,17
 217 399 217 399 217 387 c 2,18,-1
 217 379 l 1,19,20
 -50 219 -50 219 -50 148 c 1,21,22
 -309 -536 -309 -536 -431 -536 c 2,23,-1
 -446 -536 l 2,24,25
 -489 -536 -489 -536 -489 -492 c 2,26,-1
 -489 -464 l 1,27,28
 -464 -167 -464 -167 -158 163 c 1,29,30
 -93 192 -93 192 -27 394 c 1,31,32
 13 544 13 544 37 544 c 2,9,-1
-431 -492 m 1,33,34
 -356 -438 -356 -438 -165 27 c 0,35,36
 -143 84 -143 84 -143 91 c 1,37,38
 -329 -105 -329 -105 -395 -326 c 1,39,40
 -431 -428 -431 -428 -431 -492 c 1,33,34
EndSplineSet
AlternateSubs2: "'aalt' Activar todas las variantes en Latin b+APoA-squeda 1 subtabla" j_2
EndChar

StartChar: k
Encoding: 107 107 78
Width: 547
GlyphClass: 2
Flags: W
LayerCount: 2
Fore
SplineSet
650 1855 m 1,0,-1
 686 1855 l 2,1,2
 699 1854 699 1854 699 1840 c 0,3,4
 699 1827 699 1827 513 1452 c 0,5,6
 231 876 231 876 30 343 c 1,7,8
 195 559 195 559 282 559 c 2,9,-1
 339 559 l 2,10,11
 380 559 380 559 390 531 c 1,12,-1
 390 508 l 2,13,14
 390 441 390 441 239 351 c 1,15,16
 177 328 177 328 138 328 c 1,17,-1
 138 322 l 2,18,19
 138 210 138 210 203 163 c 1,20,-1
 218 163 l 2,21,22
 293 163 293 163 534 408 c 1,23,-1
 555 408 l 1,24,25
 570 400 570 400 578 400 c 1,26,27
 578 360 578 360 434 235 c 0,28,29
 312 126 312 126 218 120 c 1,30,31
 126 120 126 120 87 220 c 1,32,33
 83 286 83 286 66 286 c 1,34,35
 -81 45 -81 45 -229 -305 c 1,36,37
 -241 -312 -241 -312 -258 -312 c 2,38,-1
 -265 -312 l 2,39,40
 -283 -312 -283 -312 -286 -284 c 1,41,42
 189 961 189 961 606 1783 c 1,43,44
 591 1783 591 1783 591 1798 c 0,45,46
 591 1807 591 1807 650 1855 c 1,0,-1
123 364 m 1,47,48
 230 364 230 364 326 502 c 1,49,-1
 326 523 l 1,50,51
 243 523 243 523 123 364 c 1,47,48
EndSplineSet
EndChar

StartChar: l
Encoding: 108 108 79
Width: 254
GlyphClass: 2
Flags: W
LayerCount: 2
Fore
SplineSet
606 1756 m 1,0,-1
 621 1756 l 2,1,2
 642 1756 642 1756 642 1728 c 1,3,4
 606 1621 606 1621 490 1447 c 1,5,6
 490 1431 490 1431 361 1159 c 1,7,8
 -14 333 -14 333 -20 172 c 1,9,10
 -14 157 -14 157 -14 151 c 1,11,-1
 -6 151 l 2,12,13
 31 151 31 151 238 396 c 1,14,15
 252 403 252 403 268 403 c 2,16,-1
 274 403 l 2,17,18
 289 400 289 400 289 388 c 2,19,-1
 289 373 l 1,20,21
 102 108 102 108 -27 108 c 0,22,23
 -78 108 -78 108 -78 157 c 2,24,-1
 -78 187 l 2,25,26
 -78 382 -78 382 570 1749 c 1,27,-1
 606 1756 l 1,0,-1
EndSplineSet
EndChar

StartChar: m
Encoding: 109 109 80
Width: 512
GlyphClass: 2
Flags: W
LayerCount: 2
Fore
SplineSet
315 550 m 2,0,-1
 328 550 l 2,1,2
 379 550 379 550 379 499 c 0,3,4
 379 484 379 484 328 291 c 1,5,-1
 336 277 l 1,6,7
 360 277 360 277 516 399 c 1,8,-1
 531 399 l 1,9,10
 544 391 544 391 552 391 c 1,11,-1
 552 378 l 1,12,13
 432 241 432 241 321 241 c 0,14,15
 276 241 276 241 271 298 c 1,16,-1
 321 507 l 1,17,18
 294 502 294 502 171 205 c 1,19,-1
 141 175 l 1,20,-1
 84 175 l 1,21,22
 84 183 84 183 76 198 c 1,23,-1
 148 450 l 1,24,25
 67 313 67 313 4 255 c 1,26,-1
 -60 255 l 1,27,-1
 -60 283 l 2,28,29
 -60 358 -60 358 -3 406 c 1,30,31
 33 406 33 406 33 385 c 1,32,33
 121 522 121 522 156 522 c 2,34,-1
 163 522 l 2,35,36
 207 522 207 522 207 471 c 2,37,-1
 207 435 l 1,38,-1
 213 435 l 1,39,40
 255 550 255 550 315 550 c 2,0,-1
EndSplineSet
EndChar

StartChar: n
Encoding: 110 110 81
Width: 344
GlyphClass: 2
Flags: W
LayerCount: 2
Fore
SplineSet
192 526 m 2,0,-1
 221 526 l 2,1,2
 231 526 231 526 242 505 c 1,3,-1
 242 477 l 2,4,5
 242 444 242 444 156 246 c 1,6,7
 174 246 174 246 336 405 c 1,8,-1
 372 405 l 2,9,10
 386 403 386 403 386 390 c 2,11,-1
 386 382 l 1,12,13
 230 196 230 196 156 196 c 2,14,-1
 128 196 l 1,15,-1
 92 202 l 1,16,-1
 92 238 l 2,17,18
 92 271 92 271 177 462 c 1,19,-1
 170 462 l 1,20,21
 -7 238 -7 238 -24 238 c 2,22,-1
 -75 238 l 2,23,24
 -88 238 -88 238 -88 253 c 2,25,-1
 -88 261 l 2,26,27
 -88 343 -88 343 5 441 c 1,28,-1
 26 441 l 2,29,30
 41 439 41 439 41 426 c 2,31,-1
 41 412 l 1,32,-1
 33 397 l 1,33,-1
 41 397 l 1,34,35
 138 526 138 526 192 526 c 2,0,-1
EndSplineSet
EndChar

StartChar: o
Encoding: 111 111 82
Width: 291
GlyphClass: 2
Flags: W
LayerCount: 2
Fore
SplineSet
103 471 m 1,0,1
 141 471 141 471 153 399 c 0,2,3
 153 394 153 394 132 298 c 1,4,5
 192 319 192 319 268 391 c 0,6,7
 282 399 282 399 297 399 c 1,8,9
 312 391 312 391 319 391 c 1,10,-1
 319 378 l 1,11,12
 219 262 219 262 103 262 c 1,13,14
 103 235 103 235 45 198 c 1,15,-1
 -20 198 l 1,16,17
 -48 210 -48 210 -48 247 c 2,18,-1
 -48 255 l 2,19,20
 -48 381 -48 381 60 463 c 1,21,-1
 103 471 l 1,0,1
88 406 m 1,22,-1
 88 378 l 1,23,-1
 96 378 l 1,24,-1
 96 406 l 1,25,-1
 88 406 l 1,22,-1
81 370 m 1,26,-1
 81 342 l 1,27,-1
 88 342 l 1,28,-1
 88 370 l 1,29,-1
 81 370 l 1,26,-1
16 327 m 1,30,-1
 9 255 l 1,31,-1
 9 234 l 1,32,-1
 16 234 l 1,33,34
 43 247 43 247 52 277 c 1,35,36
 48 277 48 277 16 327 c 1,30,-1
EndSplineSet
EndChar

StartChar: p
Encoding: 112 112 83
Width: 358
GlyphClass: 2
Flags: W
LayerCount: 2
Fore
SplineSet
36 525 m 2,0,-1
 78 525 l 1,1,-1
 86 489 l 1,2,3
 78 451 78 451 78 445 c 1,4,5
 155 504 155 504 209 504 c 2,6,-1
 222 504 l 2,7,8
 281 504 281 504 281 445 c 2,9,-1
 281 424 l 2,10,11
 281 394 281 394 230 331 c 1,12,-1
 237 331 l 2,13,14
 257 331 257 331 353 403 c 1,15,-1
 366 403 l 1,16,17
 381 396 381 396 389 396 c 1,18,-1
 389 360 l 1,19,20
 275 273 275 273 158 273 c 1,21,22
 114 237 114 237 86 237 c 2,23,-1
 57 237 l 2,24,25
 42 237 42 237 42 252 c 2,26,-1
 42 265 l 2,27,28
 42 279 42 279 129 316 c 1,29,30
 216 399 216 399 216 432 c 2,31,-1
 216 445 l 2,32,33
 216 460 216 460 201 460 c 0,34,35
 110 435 110 435 21 259 c 0,36,37
 -105 19 -105 19 -252 -339 c 1,38,-1
 -267 -339 l 1,39,-1
 -303 -332 l 1,40,-1
 -303 -317 l 1,41,42
 -259 -198 -259 -198 21 489 c 1,43,44
 21 525 21 525 36 525 c 2,0,-1
EndSplineSet
EndChar

StartChar: q
Encoding: 113 113 84
Width: 324
GlyphClass: 2
Flags: W
LayerCount: 2
Fore
SplineSet
258 556 m 1,0,1
 273 549 273 549 280 549 c 1,2,3
 280 513 280 513 -44 -272 c 1,4,5
 -44 -330 -44 -330 -74 -330 c 2,6,-1
 -123 -330 l 1,7,-1
 -123 -308 l 1,8,9
 -110 -258 -110 -258 150 369 c 1,10,-1
 142 369 l 1,11,12
 55 282 55 282 6 282 c 2,13,-1
 -44 282 l 2,14,15
 -60 282 -60 282 -66 318 c 1,16,17
 -3 505 -3 505 114 505 c 2,18,-1
 150 505 l 1,19,-1
 178 484 l 1,20,21
 213 556 213 556 258 556 c 1,0,1
-2 325 m 1,22,23
 67 352 67 352 150 462 c 1,24,-1
 129 462 l 2,25,26
 58 462 58 462 6 340 c 1,27,-1
 -2 325 l 1,22,23
EndSplineSet
EndChar

StartChar: r
Encoding: 114 114 85
Width: 290
GlyphClass: 2
Flags: W
LayerCount: 2
Fore
SplineSet
49 583 m 2,0,-1
 56 583 l 2,1,2
 121 583 121 583 121 511 c 1,3,4
 100 463 100 463 100 445 c 1,5,6
 142 417 142 417 151 417 c 1,7,-1
 151 388 l 2,8,9
 151 373 151 373 128 316 c 1,10,-1
 136 316 l 1,11,12
 280 417 280 417 301 417 c 2,13,-1
 308 417 l 2,14,15
 323 415 323 415 323 403 c 2,16,-1
 323 388 l 1,17,18
 202 273 202 273 128 273 c 2,19,-1
 115 273 l 2,20,21
 64 273 64 273 64 316 c 1,22,23
 85 385 85 385 85 396 c 1,24,-1
 71 403 l 1,25,26
 -65 165 -65 165 -124 36 c 1,27,-1
 -167 36 l 2,28,29
 -181 36 -181 36 -181 49 c 1,30,31
 -115 208 -115 208 20 445 c 1,32,33
 -1 445 -1 445 -16 511 c 1,34,-1
 -16 540 l 1,35,36
 10 583 10 583 49 583 c 2,0,-1
43 517 m 1,37,-1
 56 511 l 1,38,-1
 56 532 l 1,39,40
 43 531 43 531 43 517 c 1,37,-1
EndSplineSet
EndChar

StartChar: s
Encoding: 115 115 86
Width: 305
GlyphClass: 2
Flags: W
LayerCount: 2
Fore
SplineSet
54 534 m 2,0,-1
 82 534 l 2,1,2
 133 534 133 534 133 484 c 0,3,4
 133 460 133 460 39 382 c 1,5,6
 63 355 63 355 82 268 c 1,7,8
 133 268 133 268 298 397 c 1,9,-1
 327 397 l 2,10,11
 342 396 342 396 342 382 c 2,12,-1
 342 376 l 1,13,14
 217 259 217 259 75 217 c 1,15,16
 54 160 54 160 -11 160 c 2,17,-1
 -54 160 l 1,18,-1
 -54 189 l 1,19,20
 -30 225 -30 225 25 253 c 1,21,22
 25 292 25 292 -39 418 c 1,23,-1
 -39 441 l 1,24,25
 -17 534 -17 534 54 534 c 2,0,-1
18 433 m 1,26,27
 63 460 63 460 75 498 c 1,28,-1
 69 498 l 1,29,30
 18 477 18 477 18 433 c 1,26,27
EndSplineSet
EndChar

StartChar: t
Encoding: 116 116 87
Width: 142
GlyphClass: 2
Flags: W
LayerCount: 2
Fore
SplineSet
199 840 m 1,0,-1
 221 840 l 2,1,2
 235 838 235 838 235 826 c 0,3,4
 235 795 235 795 170 646 c 1,5,-1
 1885 646 l 1,6,-1
 1921 639 l 1,7,-1
 1921 616 l 2,8,9
 1921 595 1921 595 1790 595 c 2,10,-1
 1762 595 l 1,11,-1
 1741 610 l 1,12,-1
 149 610 l 1,13,14
 149 597 149 597 -406 -693 c 1,15,16
 -391 -693 -391 -693 -391 -716 c 1,17,18
 -436 -816 -436 -816 -478 -816 c 1,19,20
 -514 -810 -514 -810 -514 -794 c 1,21,-1
 85 610 l 1,22,-1
 -377 610 l 2,23,24
 -391 610 -391 610 -391 624 c 1,25,26
 -383 646 -383 646 -347 646 c 2,27,-1
 91 646 l 2,28,29
 103 646 103 646 185 832 c 1,30,-1
 199 840 l 1,0,-1
EndSplineSet
EndChar

StartChar: u
Encoding: 117 117 88
Width: 357
GlyphClass: 2
Flags: W
LayerCount: 2
Fore
SplineSet
33 502 m 2,0,-1
 56 502 l 2,1,2
 69 499 69 499 69 487 c 2,3,-1
 69 472 l 1,4,5
 5 301 5 301 5 286 c 1,6,7
 17 286 17 286 120 408 c 1,8,-1
 141 423 l 1,9,-1
 149 423 l 1,10,-1
 185 415 l 1,11,-1
 185 400 l 2,12,13
 185 382 185 382 164 307 c 1,14,-1
 177 300 l 1,15,16
 195 300 195 300 365 400 c 1,17,18
 393 390 393 390 393 379 c 2,19,-1
 393 372 l 1,20,21
 281 273 281 273 192 264 c 1,22,-1
 156 264 l 2,23,24
 105 264 105 264 105 300 c 1,25,26
 48 243 48 243 12 243 c 2,27,-1
 -39 243 l 1,28,29
 -60 250 -60 250 -60 286 c 1,30,31
 -1 502 -1 502 33 502 c 2,0,-1
EndSplineSet
EndChar

StartChar: v
Encoding: 118 118 89
Width: 314
GlyphClass: 2
Flags: W
LayerCount: 2
Fore
SplineSet
277 594 m 1,0,-1
 305 586 l 1,1,-1
 305 543 l 1,2,-1
 247 450 l 1,3,-1
 247 442 l 1,4,5
 272 399 272 399 334 399 c 1,6,-1
 334 378 l 2,7,8
 334 363 334 363 319 363 c 2,9,-1
 283 363 l 2,10,11
 253 363 253 363 211 399 c 1,12,13
 58 162 58 162 -11 162 c 2,14,-1
 -19 162 l 2,15,16
 -56 162 -56 162 -70 198 c 1,17,18
 -34 405 -34 405 25 457 c 1,19,-1
 61 450 l 1,20,-1
 61 442 l 1,21,22
 -11 241 -11 241 -11 205 c 1,23,24
 52 256 52 256 182 435 c 1,25,26
 169 489 169 489 169 493 c 0,27,28
 208 594 208 594 277 594 c 1,0,-1
EndSplineSet
EndChar

StartChar: w
Encoding: 119 119 90
Width: 417
GlyphClass: 2
Flags: W
LayerCount: 2
Fore
SplineSet
164 504 m 0,0,1
 200 502 200 502 200 489 c 0,2,3
 200 435 200 435 164 288 c 1,4,-1
 164 280 l 1,5,-1
 171 280 l 1,6,7
 233 417 233 417 264 417 c 2,8,-1
 287 417 l 1,9,10
 314 381 314 381 329 381 c 0,11,12
 333 381 333 381 416 409 c 1,13,-1
 444 403 l 1,14,-1
 444 373 l 1,15,16
 398 336 398 336 338 328 c 1,17,-1
 273 336 l 1,18,19
 210 208 210 208 149 208 c 2,20,-1
 120 208 l 2,21,22
 110 208 110 208 99 229 c 1,23,-1
 99 273 l 1,24,-1
 107 316 l 1,25,-1
 107 324 l 1,26,-1
 99 324 l 1,27,28
 45 180 45 180 -9 180 c 2,29,-1
 -31 180 l 2,30,31
 -45 183 -45 183 -60 216 c 1,32,33
 -24 445 -24 445 12 445 c 2,34,-1
 35 445 l 2,35,36
 48 445 48 445 48 424 c 0,37,38
 48 405 48 405 27 324 c 1,39,-1
 27 316 l 1,40,-1
 35 316 l 1,41,42
 108 504 108 504 164 504 c 0,0,1
EndSplineSet
EndChar

StartChar: x
Encoding: 120 120 91
Width: 323
GlyphClass: 2
Flags: W
LayerCount: 2
Fore
SplineSet
-31 481 m 2,0,-1
 11 481 l 1,1,2
 54 453 54 453 54 409 c 1,3,-1
 62 409 l 1,4,5
 122 481 122 481 126 481 c 2,6,-1
 155 481 l 2,7,8
 170 480 170 480 170 468 c 0,9,10
 170 436 170 436 83 337 c 1,11,12
 83 318 83 318 119 252 c 1,13,14
 168 271 168 271 299 396 c 0,15,16
 303 396 303 396 329 403 c 1,17,18
 357 391 357 391 357 381 c 2,19,-1
 357 373 l 1,20,21
 191 201 191 201 113 201 c 1,22,23
 41 232 41 232 41 280 c 1,24,25
 27 280 27 280 -25 216 c 1,26,-1
 -75 201 l 1,27,-1
 -90 201 l 2,28,29
 -100 201 -100 201 -111 223 c 1,30,31
 11 334 11 334 11 352 c 0,32,33
 -10 453 -10 453 -46 453 c 1,34,-1
 -46 468 l 2,35,36
 -45 481 -45 481 -31 481 c 2,0,-1
EndSplineSet
EndChar

StartChar: y
Encoding: 121 121 92
Width: 246
GlyphClass: 2
Flags: W
LayerCount: 2
Fore
SplineSet
204 472 m 2,0,1
 219 471 219 471 219 459 c 2,2,-1
 219 451 l 1,3,-1
 -357 -896 l 1,4,5
 -343 -896 -343 -896 -343 -917 c 1,6,7
 -364 -962 -364 -962 -408 -996 c 1,8,-1
 -436 -996 l 2,9,10
 -451 -996 -451 -996 -451 -974 c 1,11,12
 -76 -89 -76 -89 96 300 c 1,13,-1
 89 300 l 1,14,15
 50 247 50 247 -12 214 c 1,16,-1
 -69 214 l 2,17,18
 -79 214 -79 214 -91 243 c 1,19,20
 -46 379 -46 379 -4 415 c 1,21,-1
 32 415 l 1,22,-1
 32 400 l 1,23,-1
 -25 256 l 1,24,25
 14 280 14 280 183 472 c 1,26,-1
 204 472 l 2,0,1
EndSplineSet
AlternateSubs2: "'aalt' Activar todas las variantes en Latin b+APoA-squeda 1 subtabla" y_2
EndChar

StartChar: z
Encoding: 122 122 93
Width: 311
GlyphClass: 2
Flags: W
LayerCount: 2
Fore
SplineSet
110 496 m 1,0,1
 182 490 182 490 182 475 c 2,2,-1
 182 460 l 1,3,4
 55 382 55 382 -19 316 c 1,5,-1
 -26 280 l 1,6,-1
 -5 265 l 1,7,-1
 17 265 l 2,8,9
 74 265 74 265 298 409 c 1,10,-1
 326 409 l 2,11,12
 341 408 341 408 341 396 c 2,13,-1
 341 388 l 1,14,15
 131 223 131 223 10 223 c 0,16,17
 -91 223 -91 223 -91 288 c 0,18,19
 -91 358 -91 358 74 445 c 1,20,-1
 74 453 l 1,21,-1
 -34 453 l 2,22,23
 -49 453 -49 453 -49 468 c 0,24,25
 -49 478 -49 478 -26 489 c 1,26,27
 41 489 41 489 110 496 c 1,0,1
EndSplineSet
EndChar

StartChar: braceleft
Encoding: 123 123 94
Width: 49
GlyphClass: 2
Flags: W
LayerCount: 2
Fore
SplineSet
-2377 -2 m 2,0,-1
 -2225 -2 l 2,1,2
 -1423 -2 -1423 -2 7 -168 c 1,3,-1
 14 -182 l 1,4,-1
 14 -197 l 1,5,6
 7 -197 7 -197 -8 -204 c 1,7,8
 -1442 -38 -1442 -38 -2204 -38 c 2,9,-1
 -2392 -38 l 2,10,11
 -2972 -38 -2972 -38 -3652 -153 c 1,12,-1
 -3652 -182 l 1,13,-1
 -3673 -182 l 2,14,15
 -3781 -182 -3781 -182 -3781 -153 c 0,16,17
 -3781 -116 -3781 -116 -3089 -38 c 1,18,19
 -2704 -2 -2704 -2 -2377 -2 c 2,0,-1
EndSplineSet
EndChar

StartChar: bar
Encoding: 124 124 95
Width: 31
GlyphClass: 2
Flags: W
LayerCount: 2
Fore
SplineSet
-913 90 m 6,0,-1
 -870 90 l 6,1,2
 -387 90 -387 90 15 -11 c 5,3,-1
 23 -26 l 5,4,-1
 23 -33 l 6,5,6
 23 -54 23 -54 -57 -54 c 5,7,8
 -102 16 -102 16 -813 54 c 5,9,-1
 -934 54 l 6,10,11
 -1338 54 -1338 54 -2158 -54 c 5,12,13
 -2173 -47 -2173 -47 -2181 -47 c 5,14,-1
 -2181 -33 l 6,15,16
 -2181 -2 -2181 -2 -1317 75 c 4,17,18
 -1107 90 -1107 90 -913 90 c 6,0,-1
EndSplineSet
EndChar

StartChar: braceright
Encoding: 125 125 96
Width: 30
GlyphClass: 2
Flags: W
LayerCount: 2
Fore
SplineSet
-2026 109 m 0,0,1
 -951 109 -951 109 -133 -56 c 1,2,3
 26 -105 26 -105 39 -143 c 1,4,-1
 39 -179 l 2,5,6
 39 -287 39 -287 -1905 -338 c 1,7,8
 -3024 -402 -3024 -402 -3114 -510 c 1,9,10
 -3124 -510 -3124 -510 -3135 -531 c 1,11,-1
 -3135 -546 l 2,12,13
 -3135 -690 -3135 -690 -2170 -734 c 1,14,15
 -1875 -770 -1875 -770 -1875 -812 c 2,16,-1
 -1875 -855 l 2,17,18
 -1875 -905 -1875 -905 -2121 -986 c 1,19,20
 -2247 -1014 -2247 -1014 -2286 -1014 c 1,21,22
 -2299 -1007 -2299 -1007 -2307 -1007 c 1,23,-1
 -2307 -999 l 2,24,25
 -2307 -983 -2307 -983 -2106 -942 c 1,26,27
 -1933 -882 -1933 -882 -1933 -827 c 0,28,29
 -1933 -779 -1933 -779 -2811 -719 c 1,30,31
 -3201 -663 -3201 -663 -3201 -546 c 0,32,33
 -3201 -324 -3201 -324 -1191 -279 c 1,34,35
 -18 -231 -18 -231 -18 -164 c 1,36,37
 -61 -24 -61 -24 -1551 66 c 1,38,39
 -1864 73 -1864 73 -2041 73 c 0,40,41
 -3025 73 -3025 73 -4173 -143 c 1,42,-1
 -4173 -164 l 1,43,-1
 -4201 -164 l 2,44,45
 -4287 -164 -4287 -164 -4287 -135 c 1,46,47
 -4224 -99 -4224 -99 -3574 -6 c 1,48,49
 -2721 109 -2721 109 -2026 109 c 0,0,1
EndSplineSet
EndChar

StartChar: ntilde
Encoding: 241 241 177
Width: 344
GlyphClass: 2
Flags: W
LayerCount: 2
Fore
SplineSet
-4 700 m 1,0,-1
 -5 659 l 1,1,-1
 -6 654 l 1025,2,-1
-6 655 m 0,3,4
 22 681 22 681 42 675 c 0,5,6
 64 669 64 669 88.5 650 c 128,-1,7
 113 631 113 631 131 613 c 128,-1,8
 149 595 149 595 176 584 c 0,9,10
 197 575 197 575 232 579 c 0,11,12
 333 590 333 590 336 645 c 1,13,-1
 352 663 l 1025,14,-1
-4 699 m 0,15,16
 2 706 2 706 19.5 715 c 128,-1,17
 37 724 37 724 46 721 c 0,18,19
 72 721 72 721 96 705.5 c 128,-1,20
 120 690 120 690 136.5 671.5 c 128,-1,21
 153 653 153 653 177 637.5 c 128,-1,22
 201 622 201 622 226 621 c 0,23,24
 243 622 243 622 270 637 c 128,-1,25
 297 652 297 652 308 655 c 2,26,-1
 350 661 l 1025,27,-1
  Spiro
    -4 699 {
    4.875 706.5 o
    19.5 715 o
    34.875 721 o
    46 721 o
    71.5 717.125 o
    96 705.5 o
    118.125 689.25 o
    136.5 671.5 o
    154.875 653.75 o
    177 637.5 o
    201.25 625.625 o
    226 621 o
    245.5 625.5 o
    270 637 o
    293 649 o
    308 655 [
    350 661 v
    0 0 z
  EndSpiro
192 526 m 2,28,-1
 221 526 l 2,29,30
 231 526 231 526 242 505 c 1,31,-1
 242 477 l 2,32,33
 242 444 242 444 156 246 c 1,34,35
 174 246 174 246 336 405 c 1,36,-1
 372 405 l 2,37,38
 386 403 386 403 386 390 c 2,39,-1
 386 382 l 1,40,41
 230 196 230 196 156 196 c 2,42,-1
 128 196 l 1,43,-1
 92 202 l 1,44,-1
 92 238 l 2,45,46
 92 271 92 271 177 462 c 1,47,-1
 170 462 l 1,48,49
 -7 238 -7 238 -24 238 c 2,50,-1
 -75 238 l 2,51,52
 -88 238 -88 238 -88 253 c 2,53,-1
 -88 261 l 2,54,55
 -88 343 -88 343 5 441 c 1,56,-1
 26 441 l 2,57,58
 41 439 41 439 41 426 c 2,59,-1
 41 412 l 1,60,-1
 33 397 l 1,61,-1
 41 397 l 1,62,63
 138 526 138 526 192 526 c 2,28,-1
  Spiro
    192 526 [
    221 526 ]
    231.25 520.75 o
    242 505 v
    242 477 ]
    220.5 402.75 o
    156 246 v
    210 285.75 o
    336 405 v
    372 405 ]
    382.5 400.25 o
    386 390 [
    386 382 v
    250.5 242.5 o
    156 196 [
    128 196 v
    92 202 v
    92 238 ]
    113.25 310.5 o
    177 462 v
    170 462 v
    33 294 o
    -24 238 [
    -75 238 ]
    -84.75 241.75 o
    -88 253 [
    -88 261 ]
    -64.75 347 o
    5 441 v
    26 441 ]
    37.25 436.25 o
    41 426 [
    41 412 v
    33 397 v
    41 397 v
    127.25 493.75 o
    0 0 z
  EndSpiro
EndSplineSet
EndChar

StartChar: tt
Encoding: 65538 -1 236
Width: 442
GlyphClass: 3
Flags: W
LayerCount: 2
Fore
SplineSet
532 909 m 1,0,1
 545 901 545 901 553 901 c 1,2,-1
 553 886 l 1,3,-1
 460 649 l 1,4,-1
 467 649 l 1,5,6
 812 657 812 657 1000 657 c 2,7,-1
 1849 657 l 2,8,9
 1990 657 1990 657 2237 649 c 1,10,11
 2252 642 2252 642 2260 642 c 1,12,-1
 2260 606 l 1,13,14
 2183 592 2183 592 2144 592 c 0,15,16
 2123 592 2123 592 2123 613 c 1,17,18
 1942 621 1942 621 1835 621 c 2,19,-1
 1252 621 l 2,20,21
 971 621 971 621 445 613 c 1,22,23
 -124 -717 -124 -717 -124 -755 c 1,24,25
 -142 -770 -142 -770 -145 -770 c 2,26,-1
 -181 -770 l 2,27,28
 -196 -770 -196 -770 -196 -747 c 1,29,-1
 293 426 l 1,30,31
 47 145 47 145 -16 145 c 2,32,-1
 -67 145 l 2,33,34
 -83 145 -83 145 -88 181 c 1,35,36
 -88 244 -88 244 56 598 c 1,37,-1
 49 598 l 2,38,39
 7 598 7 598 -103 592 c 1,40,-1
 -109 606 l 1,41,-1
 -109 613 l 1,42,43
 -103 634 -103 634 -67 634 c 2,44,-1
 77 634 l 1,45,46
 176 880 176 880 208 880 c 2,47,-1
 221 880 l 1,48,49
 236 873 236 873 244 873 c 1,50,-1
 244 844 l 1,51,52
 149 660 149 660 149 642 c 1,53,-1
 316 642 l 2,54,55
 401 642 401 642 401 693 c 1,56,57
 484 883 484 883 503 901 c 0,58,59
 515 909 515 909 532 909 c 1,0,1
-23 196 m 1,60,-1
 -16 196 l 1,61,62
 194 385 194 385 352 598 c 1,63,-1
 352 606 l 1,64,-1
 251 606 l 2,65,66
 121 606 121 606 121 577 c 1,67,68
 20 357 20 357 -23 196 c 1,60,-1
EndSplineSet
Ligature2: "'liga' Ligaduras est+AOEA-ndar en Latin b+APoA-squeda 0 subtabla" t t
EndChar

StartChar: g_2
Encoding: 65539 -1 237
Width: 259
GlyphClass: 2
Flags: W
LayerCount: 2
Fore
SplineSet
162 444 m 1,0,-1
 183 444 l 2,1,2
 194 444 194 444 204 423 c 1,3,-1
 39 76 l 1,4,5
 308 156 308 156 666 156 c 0,6,7
 1019 156 1019 156 1350 70 c 1,8,-1
 1350 40 l 1,9,-1
 1314 34 l 1,10,-1
 1271 34 l 1,11,12
 1230 85 1230 85 708 120 c 1,13,-1
 644 120 l 2,14,15
 335 120 335 120 11 27 c 1,16,17
 -339 -636 -339 -636 -457 -636 c 2,18,-1
 -472 -636 l 2,19,20
 -522 -636 -522 -636 -522 -593 c 0,21,22
 -510 -398 -510 -398 -234 -81 c 1,23,24
 -126 12 -126 12 -40 55 c 1,25,26
 -40 67 -40 67 54 250 c 1,27,-1
 47 250 l 1,28,29
 0 199 0 199 -40 199 c 2,30,-1
 -90 199 l 2,31,32
 -102 199 -102 199 -120 228 c 1,33,-1
 -120 243 l 2,34,35
 -120 343 -120 343 24 423 c 1,36,-1
 68 423 l 2,37,38
 92 423 92 423 119 400 c 1,39,40
 119 412 119 412 162 444 c 1,0,-1
-54 243 m 1,41,-1
 -48 243 l 1,42,43
 -16 255 -16 255 83 364 c 1,44,45
 54 364 54 364 54 387 c 1,46,47
 -54 310 -54 310 -54 243 c 1,41,-1
-457 -578 m 2,48,-1
 -457 -593 l 1,49,50
 -291 -420 -291 -420 -213 -248 c 1,51,52
 -97 -63 -97 -63 -97 -38 c 1,53,54
 -264 -167 -264 -167 -357 -333 c 0,55,56
 -457 -510 -457 -510 -457 -578 c 2,48,-1
EndSplineSet
EndChar

StartChar: j_2
Encoding: 65540 -1 238
Width: 118
GlyphClass: 2
Flags: W
LayerCount: 2
Fore
SplineSet
255 876 m 1,0,-1
 263 876 l 2,1,2
 276 874 276 874 276 862 c 2,3,-1
 276 847 l 1,4,5
 246 811 246 811 191 811 c 2,6,-1
 176 811 l 2,7,8
 162 811 162 811 162 826 c 2,9,-1
 162 840 l 1,10,11
 165 840 165 840 255 876 c 1,0,-1
47 451 m 1,12,13
 60 444 60 444 68 444 c 1,14,-1
 68 430 l 1,15,16
 33 327 33 327 -105 70 c 1,17,-1
 -97 70 l 1,18,19
 114 148 114 148 378 148 c 2,20,-1
 536 148 l 2,21,22
 1086 148 1086 148 1739 -74 c 1,23,-1
 1739 -110 l 1,24,-1
 1695 -110 l 2,25,26
 1602 -110 1602 -110 1602 -81 c 0,27,28
 1602 -60 1602 -60 1263 19 c 1,29,30
 840 112 840 112 507 112 c 2,31,-1
 414 112 l 2,32,33
 50 112 50 112 -148 -9 c 1,34,35
 -336 -377 -336 -377 -493 -572 c 0,36,37
 -552 -644 -552 -644 -616 -644 c 1,38,39
 -660 -626 -660 -626 -660 -593 c 0,40,41
 -637 -374 -637 -374 -357 -74 c 1,42,-1
 -192 34 l 1,43,-1
 18 444 l 2,44,45
 21 444 21 444 47 451 c 1,12,13
-594 -593 m 1,46,47
 -441 -446 -441 -446 -300 -168 c 1,48,-1
 -241 -60 l 1,49,-1
 -249 -60 l 1,50,51
 -483 -213 -483 -213 -594 -578 c 1,52,-1
 -594 -593 l 1,46,47
EndSplineSet
EndChar

StartChar: y_2
Encoding: 65541 -1 239
Width: 307
GlyphClass: 2
Flags: W
LayerCount: 2
Fore
SplineSet
37 444 m 1,0,1
 50 436 50 436 58 436 c 1,2,-1
 58 430 l 1,3,4
 -7 264 -7 264 -7 250 c 1,5,-1
 1 250 l 1,6,7
 86 307 86 307 166 372 c 1,8,-1
 181 372 l 1,9,-1
 209 364 l 1,10,11
 145 139 145 139 -7 -197 c 1,12,13
 338 -24 338 -24 907 -24 c 2,14,-1
 1073 -24 l 2,15,16
 1504 -24 1504 -24 1837 -104 c 1,17,-1
 1843 -117 l 1,18,-1
 1843 -140 l 1,19,-1
 1771 -146 l 2,20,21
 1750 -146 1750 -146 1735 -117 c 1,22,23
 1364 -60 1364 -60 1030 -60 c 2,24,-1
 950 -60 l 2,25,26
 259 -60 259 -60 -50 -284 c 1,27,28
 -386 -1025 -386 -1025 -662 -1025 c 0,29,30
 -691 -1025 -691 -1025 -706 -996 c 1,31,-1
 -706 -953 l 1,32,33
 -620 -672 -620 -672 -194 -320 c 1,34,35
 -70 -245 -70 -245 -50 -146 c 1,36,37
 73 142 73 142 109 256 c 1,38,39
 7 192 7 192 -35 192 c 0,40,41
 -74 192 -74 192 -79 214 c 1,42,-1
 -79 220 l 1,43,44
 -29 444 -29 444 37 444 c 1,0,1
-647 -981 m 1,45,46
 -463 -981 -463 -981 -143 -348 c 1,47,48
 -373 -518 -373 -518 -554 -773 c 1,49,50
 -647 -924 -647 -924 -647 -981 c 1,45,46
EndSplineSet
EndChar
